<?xml version="1.0" standalone="no" ?>
<!DOCTYPE svg PUBLIC "-//W3C//DTD SVG 1.1//EN" "http://www.w3.org/Graphics/SVG/1.1/DTD/svg11.dtd">
<svg width="303" height="50" viewBox="0 0 303 50" version="1.1" xmlns="http://www.w3.org/2000/svg">
	<desc>081231723897</desc>
	<g id="bars" fill="black" stroke="none">
		<rect x="0" y="0" width="6" height="50" />
		<rect x="9" y="0" width="3" height="50" />
		<rect x="18" y="0" width="9" height="50" />
		<rect x="33" y="0" width="3" height="50" />
		<rect x="45" y="0" width="6" height="50" />
		<rect x="57" y="0" width="3" height="50" />
		<rect x="66" y="0" width="3" height="50" />
		<rect x="72" y="0" width="6" height="50" />
		<rect x="84" y="0" width="9" height="50" />
		<rect x="99" y="0" width="6" height="50" />
		<rect x="108" y="0" width="6" height="50" />
		<rect x="123" y="0" width="6" height="50" />
		<rect x="132" y="0" width="3" height="50" />
		<rect x="141" y="0" width="6" height="50" />
		<rect x="159" y="0" width="3" height="50" />
		<rect x="165" y="0" width="3" height="50" />
		<rect x="177" y="0" width="6" height="50" />
		<rect x="192" y="0" width="3" height="50" />
		<rect x="198" y="0" width="12" height="50" />
		<rect x="213" y="0" width="3" height="50" />
		<rect x="219" y="0" width="3" height="50" />
		<rect x="231" y="0" width="9" height="50" />
		<rect x="243" y="0" width="3" height="50" />
		<rect x="249" y="0" width="6" height="50" />
		<rect x="264" y="0" width="6" height="50" />
		<rect x="279" y="0" width="9" height="50" />
		<rect x="291" y="0" width="3" height="50" />
		<rect x="297" y="0" width="6" height="50" />
	</g>
</svg>
