<?xml version="1.0" encoding="UTF-8"?>
<!DOCTYPE svg PUBLIC "-//W3C//DTD SVG 1.1//EN" "http://www.w3.org/Graphics/SVG/1.1/DTD/svg11.dtd">
<!-- Creator: CorelDRAW 2017 -->
<svg xmlns="http://www.w3.org/2000/svg" xml:space="preserve" width="36.5327mm" height="39.5663mm" version="1.1" style="shape-rendering:geometricPrecision; text-rendering:geometricPrecision; image-rendering:optimizeQuality; fill-rule:evenodd; clip-rule:evenodd"
viewBox="0 0 394.62 427.39"
 xmlns:xlink="http://www.w3.org/1999/xlink">
 <defs>
  <style type="text/css">
   <![CDATA[
    .fil4 {fill:#FFF000}
    .fil7 {fill:#F08519}
    .fil8 {fill:#E62129}
    .fil9 {fill:#009B4C}
    .fil6 {fill:#0061AE}
    .fil2 {fill:#999999}
    .fil1 {fill:#B3B3B3}
    .fil3 {fill:#FEFEFE;fill-rule:nonzero}
    .fil0 {fill:#B6B6B7;fill-rule:nonzero}
    .fil5 {fill:#1D1819;fill-rule:nonzero}
   ]]>
  </style>
 </defs>
 <g id="Layer_x0020_1">
  <metadata id="CorelCorpID_0Corel-Layer"/>
  <g id="_3038514785968">
   <g>
    <polygon class="fil0" points="38.3,77.91 38.43,78.01 35.04,83.21 34.91,83.12 "/>
   </g>
   <g>
    <path class="fil1" d="M92.39 375.59c-0.17,7.71 2.37,15.09 8.64,23.23 -15.17,-8.29 -29.66,-19.7 -39.77,-31.87 11.35,7.21 21.8,7.26 31.13,8.64z"/>
    <path id="1" class="fil0" d="M99.62 401.64l2.83 -5.64 -3.8 4.81 -0.61 -0.8 -0.58 -0.8 -0.56 -0.8 -0.54 -0.79 -0.52 -0.79 -0.5 -0.79 -0.48 -0.79 -0.46 -0.79 -0.44 -0.79 -0.42 -0.79 -0.4 -0.79 -0.38 -0.79 -0.36 -0.78 -0.34 -0.79 -0.32 -0.79 -0.3 -0.79 -0.28 -0.79 -0.26 -0.79 -0.24 -0.79 -0.22 -0.79 -0.2 -0.79 -0.18 -0.79 -0.16 -0.79 -0.14 -0.79 -0.12 -0.79 -0.1 -0.79 -0.08 -0.79 -0.06 -0.8 -0.04 -0.79 -0.03 -0.79 -0.01 -0.8 0.01 -0.8 6.11 0.15 -0.01 0.65 0.01 0.65 0.02 0.64 0.04 0.64 0.05 0.64 0.07 0.64 0.08 0.64 0.1 0.64 0.11 0.64 0.13 0.64 0.14 0.64 0.16 0.64 0.18 0.64 0.19 0.64 0.21 0.64 0.23 0.65 0.25 0.65 0.26 0.65 0.28 0.66 0.3 0.66 0.32 0.66 0.34 0.67 0.36 0.67 0.38 0.68 0.4 0.68 0.42 0.69 0.44 0.69 0.46 0.7 0.48 0.7 0.5 0.71 0.52 0.72 0.55 0.72 -3.8 4.81zm-36.76 -37.41l-3.18 5.43 3.9 -4.8 0.93 1.1 0.95 1.1 0.98 1.09 1 1.09 1.03 1.09 1.05 1.08 1.07 1.07 1.09 1.07 1.11 1.06 1.13 1.05 1.15 1.05 1.17 1.04 1.19 1.03 1.21 1.02 1.22 1.01 1.24 1 1.25 0.99 1.27 0.98 1.28 0.96 1.29 0.95 1.3 0.94 1.32 0.93 1.33 0.91 1.34 0.9 1.35 0.88 1.36 0.87 1.36 0.85 1.37 0.84 1.38 0.82 1.38 0.8 1.39 0.79 1.39 0.77 -2.83 5.64 -1.45 -0.8 -1.45 -0.82 -1.44 -0.84 -1.43 -0.86 -1.43 -0.87 -1.42 -0.89 -1.41 -0.9 -1.4 -0.92 -1.39 -0.93 -1.38 -0.95 -1.37 -0.96 -1.36 -0.98 -1.35 -0.99 -1.34 -1.01 -1.32 -1.02 -1.31 -1.03 -1.29 -1.04 -1.28 -1.05 -1.26 -1.07 -1.24 -1.07 -1.23 -1.09 -1.21 -1.1 -1.19 -1.11 -1.17 -1.11 -1.15 -1.12 -1.13 -1.13 -1.11 -1.14 -1.09 -1.15 -1.06 -1.15 -1.04 -1.16 -1.01 -1.17 -0.99 -1.17 3.9 -4.8zm32.59 11.43l-6.11 -0.15 2.62 3.23 -0.85 -0.12 -0.86 -0.12 -0.87 -0.11 -0.88 -0.11 -0.9 -0.11 -0.91 -0.11 -0.92 -0.11 -0.93 -0.12 -0.94 -0.12 -0.95 -0.13 -0.97 -0.14 -0.98 -0.15 -0.98 -0.16 -1 -0.17 -1 -0.19 -1.01 -0.2 -1.03 -0.22 -1.03 -0.24 -1.04 -0.26 -1.05 -0.29 -1.06 -0.31 -1.07 -0.34 -1.07 -0.37 -1.08 -0.4 -1.09 -0.43 -1.1 -0.46 -1.1 -0.5 -1.11 -0.53 -1.12 -0.58 -1.12 -0.61 -1.12 -0.65 -1.13 -0.7 3.18 -5.43 1 0.61 0.99 0.58 0.98 0.54 0.98 0.5 0.97 0.47 0.97 0.44 0.96 0.41 0.96 0.38 0.95 0.35 0.95 0.33 0.94 0.3 0.94 0.28 0.94 0.26 0.94 0.24 0.93 0.22 0.93 0.2 0.93 0.19 0.93 0.17 0.92 0.16 0.92 0.15 0.92 0.14 0.92 0.13 0.92 0.12 0.91 0.12 0.91 0.11 0.91 0.11 0.91 0.11 0.91 0.11 0.91 0.11 0.91 0.12 0.91 0.12 0.9 0.13 2.62 3.23zm-2.62 -3.23l2.69 0.4 -0.06 2.83 -2.62 -3.23z"/>
   </g>
   <g>
    <path class="fil1" d="M53.5 78.87c-43.15,42.38 -49.71,95.42 -39.86,132.47 9.77,26.77 54.83,26.9 63.26,-18.44 -47.18,-1.51 -50.88,-59.43 -23.41,-114.03z"/>
    <path id="1" class="fil0" d="M16.5 210.22l-5.71 2.26 -0.09 -0.28 -0.9 -3.62 -0.8 -3.71 -0.69 -3.8 -0.58 -3.87 -0.47 -3.95 -0.35 -4.02 -0.23 -4.08 -0.1 -4.14 0.03 -4.2 0.16 -4.25 0.3 -4.29 0.44 -4.33 0.58 -4.37 0.73 -4.4 0.88 -4.42 1.04 -4.44 1.19 -4.46 1.36 -4.47 1.52 -4.48 1.69 -4.48 1.87 -4.47 2.04 -4.46 2.23 -4.44 2.41 -4.43 2.6 -4.4 2.79 -4.37 2.99 -4.33 3.18 -4.29 3.39 -4.25 3.59 -4.2 3.8 -4.14 4.01 -4.08 4.19 4.63 -3.86 3.93 -3.66 3.98 -3.45 4.03 -3.25 4.08 -3.05 4.12 -2.86 4.15 -2.67 4.18 -2.48 4.21 -2.3 4.23 -2.13 4.25 -1.95 4.26 -1.78 4.27 -1.61 4.27 -1.45 4.27 -1.29 4.26 -1.14 4.25 -0.99 4.23 -0.84 4.21 -0.69 4.19 -0.55 4.16 -0.42 4.12 -0.28 4.08 -0.15 4.04 -0.03 3.99 0.1 3.94 0.21 3.88 0.33 3.81 0.44 3.74 0.55 3.67 0.65 3.59 0.75 3.51 0.85 3.42 -0.09 -0.28zm-5.71 2.26l-0.05 -0.14 -0.04 -0.14 0.09 0.28zm66.02 -16.39l0.18 -6.36 2.91 3.79 -0.94 4.31 -1.16 4.06 -1.36 3.8 -1.55 3.55 -1.73 3.29 -1.9 3.04 -2.05 2.79 -2.19 2.54 -2.32 2.29 -2.43 2.04 -2.52 1.79 -2.6 1.54 -2.66 1.3 -2.71 1.06 -2.75 0.82 -2.77 0.59 -2.77 0.35 -2.77 0.13 -2.74 -0.1 -2.71 -0.32 -2.66 -0.54 -2.6 -0.75 -2.52 -0.96 -2.43 -1.17 -2.32 -1.38 -2.2 -1.58 -2.06 -1.78 -1.91 -1.98 -1.74 -2.17 -1.55 -2.36 -1.35 -2.54 -1.13 -2.71 5.71 -2.26 0.9 2.15 1.07 2 1.23 1.86 1.38 1.71 1.51 1.57 1.64 1.42 1.76 1.26 1.87 1.11 1.97 0.95 2.05 0.78 2.12 0.61 2.18 0.44 2.23 0.26 2.27 0.08 2.29 -0.11 2.3 -0.29 2.3 -0.49 2.29 -0.68 2.26 -0.88 2.22 -1.08 2.17 -1.29 2.12 -1.5 2.04 -1.72 1.96 -1.94 1.87 -2.16 1.76 -2.39 1.64 -2.63 1.51 -2.88 1.37 -3.13 1.21 -3.39 1.04 -3.65 0.85 -3.92 2.91 3.79zm0.18 -6.36l3.59 0.11 -0.68 3.67 -2.91 -3.79zm-21.4 -108.53l-4.19 -4.63 4.8 3.8 -2.44 5.04 -2.26 5.04 -2.07 5.04 -1.89 5.03 -1.7 5 -1.51 4.96 -1.31 4.91 -1.12 4.84 -0.92 4.77 -0.72 4.68 -0.52 4.59 -0.32 4.48 -0.11 4.35 0.09 4.22 0.3 4.08 0.5 3.92 0.71 3.75 0.91 3.57 1.12 3.39 1.32 3.19 1.52 2.98 1.72 2.77 1.93 2.55 2.14 2.33 2.35 2.11 2.57 1.88 2.79 1.64 3.03 1.39 3.28 1.14 3.53 0.87 3.8 0.59 4.06 0.29 -0.18 6.36 -4.53 -0.32 -4.29 -0.66 -4.05 -1 -3.81 -1.32 -3.57 -1.64 -3.32 -1.95 -3.06 -2.24 -2.81 -2.52 -2.54 -2.78 -2.28 -3.02 -2.02 -3.25 -1.76 -3.45 -1.51 -3.65 -1.26 -3.83 -1.02 -3.99 -0.78 -4.15 -0.55 -4.29 -0.32 -4.42 -0.1 -4.55 0.12 -4.66 0.34 -4.76 0.55 -4.85 0.76 -4.94 0.97 -5.01 1.17 -5.07 1.37 -5.12 1.57 -5.16 1.76 -5.19 1.96 -5.22 2.15 -5.23 2.34 -5.23 2.53 -5.22 4.8 3.8z"/>
   </g>
   <g>
    <path class="fil1" d="M311.86 50.34c9.63,27.95 3.3,48.36 -7.31,62.73 25.11,8.89 55.9,1.72 44.98,-26.17 -8.42,-13.73 -15.2,-22.44 -37.67,-36.56z"/>
    <path id="1" class="fil0" d="M305.54 110.05l-1.96 6.03 -1.44 -4.95 0.93 -1.3 0.91 -1.33 0.88 -1.37 0.85 -1.4 0.82 -1.43 0.78 -1.46 0.75 -1.5 0.71 -1.53 0.67 -1.57 0.62 -1.6 0.58 -1.64 0.53 -1.67 0.48 -1.71 0.44 -1.75 0.38 -1.78 0.33 -1.82 0.27 -1.86 0.21 -1.9 0.16 -1.94 0.1 -1.98 0.03 -2.02 -0.04 -2.06 -0.11 -2.11 -0.18 -2.15 -0.25 -2.19 -0.33 -2.24 -0.4 -2.28 -0.48 -2.33 -0.57 -2.37 -0.65 -2.42 -0.74 -2.47 -0.83 -2.51 5.75 -2.15 0.88 2.68 0.79 2.64 0.7 2.6 0.61 2.56 0.52 2.52 0.44 2.48 0.35 2.44 0.27 2.4 0.19 2.36 0.12 2.32 0.04 2.28 -0.03 2.24 -0.1 2.2 -0.17 2.16 -0.24 2.12 -0.3 2.08 -0.37 2.04 -0.43 1.99 -0.49 1.95 -0.54 1.91 -0.6 1.87 -0.65 1.83 -0.7 1.79 -0.74 1.75 -0.79 1.71 -0.83 1.67 -0.87 1.63 -0.9 1.59 -0.94 1.55 -0.97 1.51 -1 1.47 -1.03 1.43 -1.44 -4.95zm-1.96 6.03l-4.04 -1.43 2.6 -3.52 1.44 4.95zm43.39 -27.47l5.15 -3.42 0.25 0.51 0.98 2.76 0.73 2.67 0.49 2.58 0.25 2.5 0.01 2.4 -0.22 2.31 -0.45 2.2 -0.68 2.08 -0.89 1.95 -1.09 1.81 -1.27 1.66 -1.43 1.51 -1.58 1.36 -1.71 1.21 -1.82 1.07 -1.93 0.93 -2.02 0.8 -2.11 0.68 -2.18 0.56 -2.25 0.44 -2.31 0.33 -2.37 0.21 -2.41 0.1 -2.45 -0 -2.48 -0.11 -2.51 -0.21 -2.52 -0.32 -2.53 -0.42 -2.53 -0.52 -2.52 -0.62 -2.5 -0.72 -2.48 -0.82 1.96 -6.03 2.26 0.75 2.28 0.66 2.3 0.57 2.3 0.48 2.3 0.38 2.29 0.29 2.27 0.19 2.24 0.1 2.19 0 2.14 -0.09 2.08 -0.19 2.01 -0.28 1.93 -0.38 1.84 -0.47 1.74 -0.56 1.63 -0.65 1.52 -0.74 1.39 -0.82 1.26 -0.89 1.13 -0.97 0.99 -1.04 0.85 -1.11 0.72 -1.19 0.59 -1.28 0.45 -1.37 0.31 -1.49 0.16 -1.61 -0.01 -1.75 -0.19 -1.9 -0.39 -2.04 -0.6 -2.19 -0.83 -2.34 0.25 0.51zm5.15 -3.42l0.15 0.24 0.1 0.27 -0.25 -0.51zm-37.37 -35.92l-5.75 2.15 4.45 -3.8 2.08 1.32 2 1.3 1.91 1.27 1.83 1.24 1.76 1.22 1.68 1.2 1.61 1.18 1.54 1.17 1.48 1.15 1.42 1.14 1.36 1.13 1.3 1.12 1.25 1.11 1.2 1.11 1.15 1.11 1.11 1.1 1.06 1.11 1.03 1.11 0.99 1.11 0.96 1.11 0.93 1.12 0.9 1.13 0.87 1.14 0.85 1.15 0.83 1.16 0.82 1.17 0.81 1.19 0.8 1.2 0.79 1.22 0.79 1.24 0.79 1.26 0.8 1.29 -5.15 3.42 -0.78 -1.26 -0.77 -1.23 -0.76 -1.2 -0.76 -1.17 -0.76 -1.15 -0.76 -1.12 -0.77 -1.1 -0.78 -1.08 -0.79 -1.07 -0.81 -1.05 -0.83 -1.04 -0.85 -1.03 -0.88 -1.02 -0.91 -1.02 -0.94 -1.02 -0.98 -1.02 -1.02 -1.02 -1.07 -1.03 -1.11 -1.03 -1.16 -1.04 -1.22 -1.05 -1.28 -1.06 -1.34 -1.08 -1.4 -1.09 -1.47 -1.11 -1.54 -1.13 -1.62 -1.15 -1.69 -1.18 -1.78 -1.21 -1.86 -1.23 -1.95 -1.26 -2.04 -1.29 4.45 -3.8zm-5.75 2.15l-2.9 -8.42 7.35 4.62 -4.45 3.8z"/>
   </g>
   <g>
    <path class="fil1" d="M391.05 217.13c3.78,42.78 -13.2,106.52 -45.08,106.75 -18.65,-2.96 -39.23,-17.29 -40.79,-46.67 39.33,18.49 70.96,-15.03 85.87,-60.08z"/>
    <path id="1" class="fil0" d="M345.51 327.03l0.92 -6.29 -0.48 -0.04 2.58 -0.18 2.5 -0.49 2.43 -0.8 2.37 -1.09 2.32 -1.38 2.27 -1.67 2.21 -1.94 2.14 -2.21 2.07 -2.47 2 -2.71 1.92 -2.93 1.84 -3.14 1.75 -3.34 1.66 -3.52 1.56 -3.68 1.47 -3.83 1.37 -3.96 1.27 -4.07 1.17 -4.17 1.06 -4.25 0.95 -4.31 0.85 -4.37 0.74 -4.4 0.63 -4.41 0.52 -4.41 0.41 -4.4 0.29 -4.37 0.18 -4.32 0.06 -4.25 -0.05 -4.18 -0.17 -4.08 -0.29 -3.96 6.08 -0.58 0.3 4.17 0.18 4.27 0.06 4.36 -0.07 4.43 -0.19 4.49 -0.3 4.53 -0.42 4.56 -0.54 4.58 -0.65 4.58 -0.77 4.56 -0.88 4.53 -0.99 4.48 -1.11 4.42 -1.22 4.35 -1.33 4.26 -1.44 4.16 -1.55 4.04 -1.66 3.9 -1.77 3.75 -1.88 3.59 -1.99 3.41 -2.11 3.22 -2.22 3.01 -2.34 2.79 -2.46 2.54 -2.59 2.28 -2.72 2 -2.85 1.7 -2.98 1.37 -3.1 1.01 -3.21 0.63 -3.31 0.23 -0.48 -0.04zm0.48 0.04l-0.25 0 -0.24 -0.04 0.48 0.04zm-39.56 -52.76l-2.51 5.8 4.3 -3.07 0.19 2.57 0.29 2.48 0.39 2.39 0.48 2.3 0.57 2.22 0.66 2.13 0.74 2.05 0.82 1.97 0.89 1.89 0.96 1.81 1.03 1.73 1.09 1.66 1.15 1.58 1.21 1.51 1.26 1.44 1.32 1.37 1.36 1.3 1.41 1.23 1.45 1.16 1.49 1.09 1.52 1.02 1.55 0.95 1.58 0.88 1.6 0.82 1.62 0.75 1.64 0.68 1.65 0.62 1.65 0.55 1.66 0.48 1.66 0.42 1.66 0.36 1.65 0.29 -0.92 6.29 -1.86 -0.33 -1.86 -0.4 -1.87 -0.47 -1.87 -0.54 -1.86 -0.62 -1.85 -0.69 -1.84 -0.77 -1.83 -0.84 -1.81 -0.92 -1.79 -1 -1.76 -1.08 -1.73 -1.16 -1.69 -1.24 -1.65 -1.32 -1.61 -1.4 -1.56 -1.49 -1.51 -1.57 -1.46 -1.65 -1.39 -1.74 -1.33 -1.82 -1.26 -1.91 -1.18 -2 -1.1 -2.08 -1.02 -2.17 -0.93 -2.25 -0.84 -2.34 -0.75 -2.43 -0.65 -2.51 -0.54 -2.6 -0.44 -2.68 -0.33 -2.77 -0.21 -2.85 4.3 -3.07zm-4.3 3.07l-0.28 -5.23 4.58 2.15 -4.3 3.07zm91.97 -60.54l-6.08 0.58 5.93 0.75 -1.47 4.27 -1.57 4.19 -1.67 4.11 -1.77 4.03 -1.86 3.93 -1.96 3.83 -2.05 3.72 -2.14 3.6 -2.23 3.48 -2.32 3.34 -2.41 3.2 -2.5 3.06 -2.59 2.9 -2.67 2.74 -2.76 2.57 -2.84 2.39 -2.93 2.2 -3.01 2 -3.09 1.8 -3.17 1.58 -3.25 1.36 -3.32 1.13 -3.4 0.88 -3.46 0.63 -3.52 0.37 -3.58 0.1 -3.64 -0.18 -3.69 -0.47 -3.73 -0.76 -3.77 -1.05 -3.81 -1.35 -3.84 -1.66 2.51 -5.8 3.49 1.51 3.43 1.22 3.37 0.94 3.31 0.67 3.25 0.41 3.19 0.16 3.13 -0.08 3.08 -0.32 3.03 -0.55 2.97 -0.77 2.92 -0.99 2.87 -1.2 2.82 -1.41 2.76 -1.61 2.71 -1.81 2.65 -2 2.59 -2.18 2.53 -2.36 2.47 -2.53 2.4 -2.7 2.33 -2.85 2.26 -3.01 2.19 -3.15 2.11 -3.29 2.03 -3.42 1.95 -3.54 1.87 -3.65 1.78 -3.76 1.69 -3.86 1.6 -3.95 1.51 -4.03 1.42 -4.11 5.93 0.75z"/>
   </g>
   <g>
    <path class="fil1" d="M169.38 175.86l37.49 24.47c72.49,-30.72 131.94,8.94 49.43,68.45 59.58,3.2 139.18,-45.93 131.67,-97.4 -28.71,-57.47 -141.56,-53.53 -218.59,4.48z"/>
    <path id="1" class="fil0" d="M205.25 203.02l-37.49 -24.47 3.24 -5.39 37.49 24.47 -0.47 5.64 -2.77 -0.25zm2.77 0.25l-1.45 0.61 -1.33 -0.87 2.77 0.25zm48.43 62.32l-0.31 6.36 -1.59 -5.8 7.22 -5.44 6.4 -5.3 5.61 -5.15 4.84 -4.98 4.09 -4.8 3.37 -4.6 2.68 -4.38 2.02 -4.15 1.39 -3.9 0.81 -3.63 0.27 -3.36 -0.23 -3.11 -0.69 -2.88 -1.13 -2.67 -1.57 -2.49 -2.02 -2.31 -2.46 -2.13 -2.9 -1.92 -3.32 -1.7 -3.73 -1.45 -4.11 -1.18 -4.47 -0.89 -4.8 -0.59 -5.1 -0.28 -5.38 0.05 -5.63 0.38 -5.86 0.73 -6.06 1.09 -6.24 1.46 -6.39 1.84 -6.52 2.23 -6.62 2.62 -2.31 -5.9 6.89 -2.73 6.79 -2.32 6.67 -1.92 6.53 -1.53 6.36 -1.15 6.18 -0.77 5.97 -0.41 5.74 -0.05 5.49 0.3 5.21 0.65 4.92 0.99 4.6 1.32 4.26 1.65 3.9 1.99 3.51 2.33 3.09 2.67 2.62 3.02 2.11 3.35 1.55 3.66 0.94 3.93 0.31 4.15 -0.34 4.33 -0.99 4.48 -1.65 4.62 -2.31 4.74 -2.98 4.87 -3.67 5 -4.37 5.13 -5.1 5.25 -5.85 5.37 -6.63 5.49 -7.43 5.6 -1.59 -5.8zm-0.31 6.36l-8.95 -0.48 7.37 -5.31 1.59 5.8zm129.11 -99.11l5.42 -2.94 0.31 0.99 0.48 5.15 -0.04 5.13 -0.54 5.08 -1.02 5.02 -1.47 4.94 -1.9 4.85 -2.3 4.76 -2.68 4.66 -3.04 4.55 -3.37 4.43 -3.69 4.31 -3.98 4.18 -4.25 4.04 -4.5 3.9 -4.74 3.75 -4.95 3.59 -5.15 3.42 -5.32 3.24 -5.48 3.06 -5.62 2.87 -5.74 2.67 -5.84 2.46 -5.92 2.24 -5.98 2.01 -6.02 1.77 -6.04 1.53 -6.05 1.27 -6.04 1.01 -6.01 0.73 -5.96 0.45 -5.89 0.15 -5.8 -0.15 0.31 -6.36 5.48 0.14 5.59 -0.15 5.68 -0.43 5.74 -0.7 5.79 -0.97 5.81 -1.22 5.82 -1.47 5.8 -1.71 5.77 -1.94 5.71 -2.16 5.63 -2.37 5.54 -2.57 5.42 -2.77 5.28 -2.95 5.12 -3.12 4.95 -3.29 4.75 -3.44 4.53 -3.58 4.29 -3.71 4.03 -3.84 3.76 -3.94 3.46 -4.04 3.15 -4.13 2.81 -4.21 2.46 -4.27 2.09 -4.33 1.71 -4.37 1.31 -4.4 0.9 -4.42 0.48 -4.44 0.04 -4.46 -0.42 -4.48 0.31 0.99zm5.42 -2.94l0.24 0.47 0.08 0.52 -0.31 -0.99zm-219.68 3.25l-3.24 5.39 -0.17 -5.28 7.43 -5.35 7.61 -5.03 7.78 -4.7 7.92 -4.38 8.05 -4.05 8.14 -3.72 8.22 -3.39 8.28 -3.06 8.32 -2.73 8.33 -2.4 8.32 -2.07 8.29 -1.73 8.24 -1.39 8.17 -1.05 8.07 -0.72 7.96 -0.37 7.82 -0.03 7.67 0.32 7.49 0.66 7.29 1.02 7.07 1.37 6.82 1.73 6.56 2.09 6.27 2.45 5.96 2.82 5.63 3.19 5.28 3.57 4.89 3.95 4.49 4.33 4.05 4.72 3.59 5.11 3.09 5.49 -5.42 2.94 -2.78 -4.93 -3.23 -4.59 -3.66 -4.26 -4.08 -3.94 -4.48 -3.62 -4.86 -3.29 -5.23 -2.96 -5.58 -2.64 -5.9 -2.31 -6.21 -1.97 -6.49 -1.64 -6.75 -1.31 -6.99 -0.97 -7.2 -0.64 -7.39 -0.31 -7.56 0.03 -7.71 0.36 -7.84 0.69 -7.94 1.02 -8.02 1.36 -8.07 1.68 -8.11 2.01 -8.12 2.34 -8.11 2.66 -8.07 2.99 -8.02 3.31 -7.94 3.63 -7.84 3.95 -7.72 4.26 -7.57 4.58 -7.41 4.89 -7.22 5.21 -0.17 -5.28zm-3.24 5.39l-3.84 -2.51 3.67 -2.77 0.17 5.28z"/>
   </g>
   <g>
    <path class="fil1" d="M125.81 207.7l40.29 22.95c-33.28,31.82 4.82,48.39 48.73,55.64 100.45,10.59 146.25,63.49 89.79,107.06 -36.11,30.43 -152.16,47.35 -185.49,7.51 -14.64,-46.42 43.46,-70.01 79.09,-48.88 13.48,16.1 -9.91,39.31 -33.43,43.01 31.8,16.89 103.41,3.27 91.58,-37.26 -23.81,-32.75 -135.8,-34.01 -147.89,-94.14 -2.47,-25.91 3.78,-40.11 17.33,-55.89z"/>
    <path id="1" class="fil0" d="M164.64 233.44l-40.29 -22.95 2.93 -5.58 40.29 22.95 0.6 5.14 -3.53 0.45zm2.93 -5.58l3.75 2.13 -3.14 3.01 -0.6 -5.14zm47.57 55.27l-0.61 6.33 -0.17 -0.02 -4.14 -0.71 -4.1 -0.77 -4.04 -0.83 -3.98 -0.89 -3.9 -0.95 -3.81 -1.01 -3.71 -1.08 -3.6 -1.14 -3.47 -1.21 -3.34 -1.28 -3.2 -1.35 -3.04 -1.43 -2.88 -1.51 -2.7 -1.6 -2.52 -1.69 -2.32 -1.79 -2.11 -1.9 -1.88 -2.01 -1.63 -2.14 -1.36 -2.28 -1.07 -2.41 -0.73 -2.54 -0.38 -2.65 0 -2.73 0.38 -2.78 0.76 -2.81 1.13 -2.84 1.5 -2.87 1.88 -2.9 2.25 -2.95 2.64 -3 3.03 -3.06 4.13 4.69 -2.79 2.81 -2.38 2.7 -1.97 2.58 -1.58 2.45 -1.22 2.31 -0.87 2.18 -0.55 2.04 -0.26 1.91 0 1.8 0.25 1.72 0.48 1.67 0.73 1.64 0.98 1.63 1.23 1.61 1.48 1.59 1.73 1.56 1.97 1.52 2.21 1.48 2.42 1.43 2.63 1.38 2.82 1.33 3 1.27 3.16 1.21 3.31 1.16 3.45 1.1 3.57 1.04 3.68 0.98 3.78 0.92 3.87 0.87 3.94 0.81 4.01 0.75 4.06 0.7 -0.17 -0.02zm-0.61 6.33l-0.09 -0.01 -0.08 -0.01 0.17 0.02zm92.02 106.37l-3.84 -4.95 0.1 -0.08 4.84 -3.99 4.24 -4 3.66 -4.01 3.08 -4 2.52 -3.98 1.98 -3.94 1.46 -3.9 0.95 -3.85 0.47 -3.81 -0.01 -3.77 -0.47 -3.74 -0.93 -3.71 -1.39 -3.69 -1.85 -3.66 -2.31 -3.62 -2.78 -3.58 -3.24 -3.51 -3.69 -3.44 -4.14 -3.35 -4.58 -3.24 -5.01 -3.13 -5.44 -3 -5.85 -2.86 -6.26 -2.7 -6.65 -2.54 -7.04 -2.37 -7.42 -2.18 -7.79 -1.99 -8.15 -1.78 -8.49 -1.57 -8.84 -1.34 -9.17 -1.1 0.61 -6.33 9.34 1.13 9.02 1.37 8.68 1.6 8.34 1.82 7.99 2.04 7.63 2.24 7.26 2.44 6.89 2.63 6.5 2.81 6.11 2.98 5.71 3.15 5.3 3.31 4.89 3.46 4.46 3.61 4.02 3.75 3.58 3.89 3.12 4.02 2.64 4.14 2.15 4.26 1.64 4.37 1.11 4.46 0.57 4.54 0.01 4.59 -0.56 4.61 -1.14 4.6 -1.71 4.58 -2.28 4.54 -2.85 4.49 -3.42 4.44 -3.99 4.37 -4.57 4.31 -5.15 4.24 0.1 -0.08zm-3.84 -4.95l0.07 -0.06 0.03 -0.03 -0.1 0.08zm-186.47 10.98l5.8 -1.98 -0.6 -1.1 3.12 3.31 3.57 3.03 4 2.76 4.41 2.49 4.8 2.22 5.15 1.96 5.48 1.69 5.77 1.42 6.03 1.17 6.26 0.91 6.45 0.67 6.62 0.43 6.75 0.19 6.86 -0.03 6.93 -0.25 6.97 -0.46 6.98 -0.67 6.96 -0.86 6.91 -1.05 6.83 -1.23 6.72 -1.4 6.58 -1.57 6.41 -1.72 6.2 -1.87 5.97 -2 5.7 -2.13 5.4 -2.25 5.07 -2.36 4.71 -2.46 4.32 -2.55 3.89 -2.62 3.43 -2.67 3.84 4.95 -3.79 2.95 -4.21 2.83 -4.61 2.71 -4.97 2.59 -5.31 2.47 -5.61 2.34 -5.9 2.21 -6.15 2.07 -6.38 1.92 -6.57 1.77 -6.74 1.6 -6.88 1.44 -6.99 1.26 -7.07 1.07 -7.13 0.88 -7.15 0.68 -7.14 0.48 -7.11 0.26 -7.05 0.03 -6.96 -0.2 -6.84 -0.44 -6.69 -0.69 -6.51 -0.95 -6.31 -1.22 -6.08 -1.5 -5.81 -1.79 -5.53 -2.1 -5.21 -2.41 -4.86 -2.75 -4.48 -3.09 -4.07 -3.46 -3.61 -3.83 -0.6 -1.1zm0.6 1.1l-0.41 -0.49 -0.19 -0.61 0.6 1.1zm83.69 -53.06l-4.6 4.18 0.79 0.67 -3.21 -1.74 -3.32 -1.5 -3.42 -1.27 -3.5 -1.03 -3.57 -0.8 -3.62 -0.57 -3.65 -0.35 -3.66 -0.12 -3.65 0.1 -3.63 0.31 -3.59 0.52 -3.53 0.73 -3.45 0.93 -3.35 1.13 -3.24 1.33 -3.11 1.51 -2.96 1.69 -2.79 1.87 -2.61 2.04 -2.41 2.2 -2.2 2.36 -1.97 2.51 -1.73 2.66 -1.48 2.8 -1.22 2.95 -0.94 3.09 -0.64 3.24 -0.34 3.39 -0.01 3.55 0.33 3.7 0.7 3.86 1.09 4.02 -5.8 1.98 -1.23 -4.55 -0.81 -4.43 -0.39 -4.31 0.01 -4.17 0.4 -4.03 0.77 -3.87 1.12 -3.7 1.45 -3.53 1.76 -3.34 2.05 -3.14 2.31 -2.94 2.55 -2.74 2.77 -2.53 2.97 -2.32 3.15 -2.11 3.32 -1.9 3.46 -1.69 3.59 -1.47 3.7 -1.25 3.8 -1.03 3.87 -0.8 3.93 -0.57 3.98 -0.34 4 -0.11 4.01 0.13 4.01 0.38 3.98 0.63 3.94 0.88 3.88 1.15 3.81 1.41 3.71 1.68 3.6 1.96 0.79 0.67zm-0.79 -0.67l0.45 0.27 0.34 0.41 -0.79 -0.67zm-33.55 42.94l-2.77 5.67 0.93 -5.98 2.06 -0.38 2.06 -0.48 2.05 -0.58 2.04 -0.68 2.01 -0.77 1.98 -0.85 1.95 -0.93 1.9 -1.01 1.85 -1.08 1.79 -1.15 1.72 -1.21 1.65 -1.26 1.57 -1.31 1.48 -1.35 1.38 -1.39 1.28 -1.42 1.17 -1.44 1.06 -1.45 0.93 -1.46 0.81 -1.46 0.68 -1.46 0.54 -1.44 0.41 -1.42 0.27 -1.39 0.14 -1.37 -0 -1.34 -0.14 -1.31 -0.28 -1.29 -0.43 -1.28 -0.59 -1.28 -0.77 -1.28 -0.97 -1.28 4.6 -4.18 1.35 1.78 1.12 1.86 0.89 1.92 0.67 1.97 0.44 2 0.22 2.02 0 2.02 -0.2 2 -0.38 1.98 -0.56 1.95 -0.72 1.92 -0.87 1.88 -1.01 1.84 -1.15 1.79 -1.27 1.75 -1.38 1.7 -1.49 1.65 -1.59 1.6 -1.69 1.54 -1.77 1.48 -1.86 1.42 -1.93 1.35 -2 1.28 -2.06 1.2 -2.12 1.12 -2.17 1.04 -2.21 0.95 -2.25 0.86 -2.28 0.76 -2.31 0.65 -2.33 0.54 -2.35 0.43 0.93 -5.98zm-2.77 5.67l-8.48 -4.5 9.4 -1.48 -0.93 5.98zm90.53 -38.17l4.87 -3.84 0.49 1 0.95 4.08 0.45 3.96 -0.05 3.83 -0.52 3.67 -0.98 3.49 -1.39 3.3 -1.78 3.09 -2.13 2.88 -2.44 2.67 -2.72 2.46 -2.98 2.26 -3.21 2.06 -3.41 1.87 -3.6 1.69 -3.76 1.51 -3.9 1.33 -4.02 1.15 -4.12 0.97 -4.2 0.79 -4.26 0.62 -4.29 0.44 -4.3 0.26 -4.3 0.09 -4.27 -0.09 -4.22 -0.27 -4.15 -0.45 -4.06 -0.63 -3.95 -0.82 -3.82 -1 -3.66 -1.19 -3.49 -1.39 -3.29 -1.59 2.77 -5.67 2.89 1.4 3.12 1.24 3.32 1.08 3.5 0.92 3.65 0.76 3.78 0.59 3.89 0.42 3.97 0.25 4.03 0.09 4.06 -0.08 4.06 -0.25 4.05 -0.42 4.01 -0.58 3.95 -0.75 3.86 -0.91 3.75 -1.07 3.61 -1.23 3.45 -1.38 3.27 -1.53 3.06 -1.68 2.83 -1.82 2.58 -1.96 2.31 -2.08 2.02 -2.2 1.72 -2.32 1.4 -2.43 1.08 -2.55 0.75 -2.67 0.4 -2.82 0.04 -2.98 -0.36 -3.16 -0.79 -3.36 0.49 1zm4.87 -3.84l0.33 0.45 0.16 0.54 -0.49 -1zm-153.37 -91.91l6.08 -0.62 -0.05 -0.34 1.33 5.11 1.84 4.8 2.33 4.52 2.79 4.26 3.24 4.03 3.65 3.8 4.04 3.59 4.4 3.39 4.72 3.21 5.01 3.03 5.27 2.87 5.49 2.72 5.68 2.58 5.83 2.46 5.94 2.35 6.03 2.26 6.07 2.19 6.08 2.13 6.06 2.08 6 2.06 5.91 2.05 5.79 2.06 5.63 2.08 5.44 2.12 5.22 2.18 4.96 2.27 4.67 2.37 4.36 2.49 4.01 2.65 3.63 2.83 3.21 3.04 2.74 3.29 -4.87 3.84 -2.23 -2.67 -2.73 -2.58 -3.2 -2.5 -3.65 -2.41 -4.06 -2.32 -4.43 -2.24 -4.76 -2.18 -5.06 -2.12 -5.32 -2.08 -5.54 -2.05 -5.73 -2.04 -5.88 -2.04 -6 -2.06 -6.08 -2.09 -6.12 -2.14 -6.13 -2.21 -6.11 -2.3 -6.05 -2.4 -5.96 -2.52 -5.84 -2.66 -5.68 -2.81 -5.49 -2.99 -5.26 -3.18 -5.01 -3.4 -4.71 -3.64 -4.38 -3.9 -4.01 -4.18 -3.6 -4.48 -3.15 -4.8 -2.65 -5.14 -2.1 -5.48 -1.51 -5.82 -0.05 -0.34zm0.05 0.34l-0.03 -0.17 -0.02 -0.17 0.05 0.34zm21.79 -59.33l-2.93 5.58 3.74 -0.67 -1.22 1.44 -1.18 1.43 -1.13 1.42 -1.08 1.42 -1.04 1.41 -0.99 1.41 -0.95 1.41 -0.9 1.41 -0.86 1.42 -0.81 1.43 -0.76 1.44 -0.72 1.45 -0.68 1.47 -0.63 1.49 -0.59 1.51 -0.54 1.53 -0.5 1.56 -0.45 1.59 -0.41 1.63 -0.37 1.66 -0.32 1.7 -0.28 1.75 -0.23 1.79 -0.18 1.84 -0.14 1.9 -0.09 1.95 -0.04 2.01 0 2.07 0.05 2.13 0.1 2.2 0.15 2.26 0.2 2.33 -6.08 0.62 -0.21 -2.46 -0.16 -2.39 -0.11 -2.33 -0.06 -2.28 -0 -2.22 0.05 -2.17 0.1 -2.12 0.15 -2.07 0.2 -2.02 0.25 -1.98 0.31 -1.94 0.36 -1.9 0.41 -1.86 0.46 -1.82 0.51 -1.79 0.56 -1.75 0.61 -1.73 0.66 -1.69 0.71 -1.67 0.76 -1.64 0.8 -1.62 0.85 -1.6 0.89 -1.58 0.94 -1.56 0.98 -1.54 1.03 -1.53 1.07 -1.52 1.11 -1.51 1.15 -1.51 1.2 -1.51 1.24 -1.51 1.28 -1.51 3.74 -0.67zm-3.74 0.67l1.61 -1.88 2.13 1.21 -3.74 0.67z"/>
   </g>
   <g>
    <path class="fil1" d="M192.45 280.51c14.92,3.85 29.84,7.71 44.76,11.56 46.73,-82.04 -89.33,-111.01 -114.88,-154.75 -34.81,-102.19 178.84,-77.99 45.45,6.73 36.16,16.83 150.42,-30.07 131.63,-93.25 -33.08,-55.92 -230.84,-66.3 -238.75,75.47 5.53,90.92 155.41,92.32 131.8,154.24z"/>
    <path id="1" class="fil0" d="M234.58 290.44l5.25 3.25 -3.36 1.46 -1.4 -0.36 -1.4 -0.36 -1.4 -0.36 -1.4 -0.36 -1.4 -0.36 -1.4 -0.36 -1.4 -0.36 -1.4 -0.36 -1.4 -0.36 -1.4 -0.36 -1.4 -0.36 -1.4 -0.36 -1.4 -0.36 -1.4 -0.36 -1.4 -0.36 -1.4 -0.36 -1.4 -0.36 -1.4 -0.36 -1.4 -0.36 -1.4 -0.36 -1.4 -0.36 -1.4 -0.36 -1.4 -0.36 -1.4 -0.36 -1.4 -0.36 -1.4 -0.36 -1.4 -0.36 -1.4 -0.36 -1.4 -0.36 -1.4 -0.36 -1.4 -0.36 -1.4 -0.36 1.46 -6.18 1.4 0.36 1.4 0.36 1.4 0.36 1.4 0.36 1.4 0.36 1.4 0.36 1.4 0.36 1.4 0.36 1.4 0.36 1.4 0.36 1.4 0.36 1.4 0.36 1.4 0.36 1.4 0.36 1.4 0.36 1.4 0.36 1.4 0.36 1.4 0.36 1.4 0.36 1.4 0.36 1.4 0.36 1.4 0.36 1.4 0.36 1.4 0.36 1.4 0.36 1.4 0.36 1.4 0.36 1.4 0.36 1.4 0.36 1.4 0.36 1.4 0.36 1.4 0.36 -3.36 1.46zm5.25 3.25l-1.16 2.03 -2.2 -0.57 3.36 -1.46zm-120.39 -155.31l5.76 -2.12 -0.27 -0.59 2.51 3.76 3.12 3.76 3.68 3.76 4.2 3.75 4.65 3.75 5.06 3.75 5.4 3.75 5.69 3.77 5.93 3.79 6.11 3.83 6.23 3.87 6.3 3.93 6.32 4.01 6.28 4.09 6.19 4.19 6.04 4.3 5.85 4.43 5.6 4.57 5.29 4.73 4.94 4.9 4.52 5.1 4.06 5.31 3.53 5.55 2.93 5.8 2.27 6.06 1.54 6.33 0.74 6.59 -0.11 6.84 -1.02 7.08 -1.97 7.32 -2.96 7.56 -3.99 7.8 -5.25 -3.25 3.72 -7.27 2.71 -6.92 1.78 -6.59 0.91 -6.27 0.1 -5.99 -0.65 -5.75 -1.35 -5.54 -2.01 -5.36 -2.63 -5.2 -3.21 -5.05 -3.75 -4.91 -4.24 -4.78 -4.68 -4.65 -5.07 -4.52 -5.4 -4.41 -5.69 -4.3 -5.91 -4.21 -6.08 -4.12 -6.2 -4.04 -6.27 -3.98 -6.28 -3.92 -6.23 -3.88 -6.14 -3.85 -5.99 -3.83 -5.79 -3.83 -5.53 -3.85 -5.23 -3.88 -4.87 -3.93 -4.47 -4 -4.01 -4.09 -3.49 -4.21 -2.91 -4.36 -0.27 -0.59zm0.27 0.59l-0.17 -0.28 -0.1 -0.31 0.27 0.59zm49.31 2.17l-2.49 5.81 -0.35 -5.62 11.36 -7.66 9.41 -7.27 7.57 -6.84 5.84 -6.38 4.22 -5.88 2.73 -5.33 1.41 -4.74 0.28 -4.16 -0.68 -3.66 -1.55 -3.3 -2.4 -3.01 -3.23 -2.7 -3.99 -2.33 -4.65 -1.91 -5.2 -1.44 -5.62 -0.95 -5.93 -0.43 -6.12 0.11 -6.19 0.65 -6.15 1.21 -5.99 1.78 -5.72 2.35 -5.33 2.92 -4.85 3.49 -4.26 4.06 -3.59 4.63 -2.84 5.22 -2 5.85 -1.07 6.53 -0.03 7.26 1.14 8.03 2.45 8.84 -5.76 2.12 -2.66 -9.59 -1.27 -8.93 0.03 -8.27 1.25 -7.6 2.36 -6.89 3.34 -6.16 4.19 -5.41 4.91 -4.68 5.49 -3.95 5.95 -3.26 6.3 -2.59 6.54 -1.95 6.68 -1.32 6.71 -0.71 6.64 -0.11 6.47 0.47 6.2 1.05 5.83 1.62 5.36 2.2 4.79 2.8 4.1 3.44 3.26 4.1 2.22 4.76 0.99 5.32 -0.38 5.73 -1.78 6.02 -3.22 6.29 -4.71 6.56 -6.28 6.87 -7.96 7.19 -9.75 7.53 -11.65 7.86 -0.35 -5.62zm-2.49 5.81l-5.31 -2.47 4.96 -3.15 0.35 5.62zm130.27 -94.49l5.2 -3.34 0.32 0.73 1.47 6.25 0.68 6.17 -0.07 6.06 -0.78 5.92 -1.44 5.76 -2.06 5.58 -2.62 5.4 -3.14 5.2 -3.61 5 -4.04 4.8 -4.43 4.59 -4.78 4.37 -5.09 4.16 -5.36 3.93 -5.59 3.7 -5.79 3.47 -5.95 3.23 -6.07 2.98 -6.15 2.72 -6.2 2.45 -6.2 2.18 -6.18 1.9 -6.11 1.61 -6.01 1.31 -5.87 1 -5.7 0.68 -5.49 0.35 -5.25 0.02 -4.98 -0.34 -4.67 -0.71 -4.34 -1.11 -3.97 -1.53 2.49 -5.81 3.25 1.25 3.72 0.95 4.15 0.63 4.53 0.31 4.86 -0.02 5.15 -0.33 5.39 -0.65 5.6 -0.95 5.75 -1.25 5.87 -1.54 5.95 -1.83 5.98 -2.1 5.98 -2.37 5.93 -2.62 5.85 -2.87 5.73 -3.11 5.56 -3.33 5.36 -3.55 5.11 -3.75 4.83 -3.95 4.51 -4.13 4.15 -4.3 3.75 -4.45 3.32 -4.6 2.85 -4.73 2.35 -4.84 1.82 -4.95 1.26 -5.05 0.68 -5.15 0.06 -5.26 -0.59 -5.37 -1.29 -5.5 0.32 0.73zm5.2 -3.34l0.2 0.34 0.11 0.38 -0.32 -0.73zm-238.31 76.94l-6.1 0.4 -0 -0.39 1.32 -13.14 2.4 -12.28 3.41 -11.43 4.36 -10.6 5.24 -9.77 6.06 -8.95 6.8 -8.15 7.47 -7.36 8.06 -6.59 8.59 -5.85 9.05 -5.13 9.44 -4.43 9.77 -3.75 10.02 -3.09 10.22 -2.46 10.35 -1.85 10.42 -1.26 10.42 -0.69 10.36 -0.14 10.24 0.39 10.05 0.9 9.8 1.38 9.49 1.86 9.12 2.31 8.68 2.75 8.18 3.16 7.62 3.57 7 3.97 6.31 4.35 5.57 4.73 4.74 5.11 3.84 5.49 -5.2 3.34 -3.31 -4.72 -4.2 -4.53 -5.05 -4.29 -5.84 -4.02 -6.57 -3.72 -7.23 -3.39 -7.82 -3.02 -8.34 -2.64 -8.79 -2.23 -9.18 -1.8 -9.5 -1.34 -9.75 -0.87 -9.94 -0.38 -10.06 0.14 -10.11 0.67 -10.1 1.22 -10.02 1.79 -9.87 2.38 -9.66 2.98 -9.38 3.6 -9.04 4.24 -8.63 4.89 -8.16 5.56 -7.63 6.24 -7.05 6.95 -6.4 7.67 -5.69 8.42 -4.93 9.19 -4.11 9.99 -3.22 10.81 -2.27 11.67 -1.26 12.56 -0 -0.39zm-6.1 0.4l-0.01 -0.19 0.01 -0.19 0 0.39zm135.58 150.96l-1.46 6.18 -2.11 -4.27 1.58 -5.19 0.68 -4.77 -0.13 -4.43 -0.87 -4.17 -1.58 -3.99 -2.27 -3.88 -2.93 -3.78 -3.56 -3.7 -4.15 -3.63 -4.67 -3.57 -5.14 -3.52 -5.54 -3.49 -5.88 -3.48 -6.17 -3.5 -6.39 -3.54 -6.55 -3.61 -6.66 -3.71 -6.7 -3.83 -6.69 -3.98 -6.61 -4.16 -6.48 -4.37 -6.29 -4.61 -6.05 -4.88 -5.74 -5.18 -5.37 -5.52 -4.94 -5.88 -4.45 -6.28 -3.89 -6.71 -3.26 -7.16 -2.56 -7.63 -1.8 -8.11 -0.97 -8.61 6.1 -0.4 0.89 7.93 1.64 7.43 2.34 6.97 2.98 6.56 3.58 6.18 4.13 5.83 4.63 5.51 5.07 5.21 5.47 4.94 5.8 4.68 6.08 4.45 6.31 4.25 6.47 4.07 6.58 3.91 6.62 3.79 6.62 3.68 6.55 3.61 6.42 3.56 6.24 3.54 6 3.56 5.71 3.6 5.36 3.67 4.96 3.79 4.5 3.94 3.98 4.14 3.39 4.38 2.72 4.67 1.96 4.98 1.1 5.3 0.16 5.58 -0.83 5.84 -1.85 6.08 -2.11 -4.27zm-1.46 6.18l-3.4 -0.88 1.29 -3.39 2.11 4.27z"/>
   </g>
   <g>
    <polygon class="fil0" points="38.31,87 38.44,87.1 35.03,92.28 34.89,92.18 "/>
   </g>
   <g>
    <path class="fil1" d="M143.74 295.87l42.2 16.47c-23.94,15.53 -77.56,34.6 -126.18,21.12 -41.94,-14.38 -67.87,-61.08 -36.35,-101.56 25.52,-24.16 70.46,-3.49 72.81,21.37 1.57,26.6 -24.47,36.86 -42.66,30.34 16.06,27.83 62.65,31.13 90.18,12.26z"/>
    <path id="1" class="fil0" d="M184.87 315.32l-42.2 -16.47 2.14 -5.96 42.2 16.47 0.55 5.68 -2.69 0.28zm2.14 -5.96l5.81 2.27 -5.26 3.41 -0.55 -5.68zm-128.2 27.12l1.91 -6.04 -0.17 -0.05 4.46 1.14 4.48 0.96 4.5 0.79 4.52 0.62 4.52 0.46 4.53 0.31 4.52 0.16 4.51 0.02 4.49 -0.12 4.47 -0.25 4.44 -0.37 4.4 -0.48 4.35 -0.59 4.3 -0.7 4.25 -0.79 4.18 -0.88 4.11 -0.97 4.04 -1.05 3.95 -1.12 3.86 -1.18 3.77 -1.24 3.66 -1.29 3.55 -1.33 3.44 -1.37 3.31 -1.4 3.18 -1.43 3.05 -1.44 2.9 -1.45 2.75 -1.46 2.6 -1.45 2.43 -1.44 2.26 -1.42 3.23 5.4 -2.4 1.51 -2.56 1.52 -2.72 1.52 -2.88 1.52 -3.02 1.51 -3.16 1.5 -3.3 1.48 -3.43 1.45 -3.55 1.42 -3.67 1.38 -3.78 1.33 -3.88 1.28 -3.98 1.22 -4.07 1.15 -4.16 1.08 -4.24 1 -4.32 0.91 -4.38 0.82 -4.45 0.72 -4.5 0.61 -4.55 0.5 -4.6 0.38 -4.63 0.25 -4.66 0.12 -4.69 -0.02 -4.71 -0.17 -4.72 -0.32 -4.73 -0.48 -4.73 -0.65 -4.72 -0.83 -4.71 -1.01 -4.68 -1.2 -0.17 -0.05zm0.17 0.05l-0.08 -0.02 -0.09 -0.03 0.17 0.05zm-37.62 -106.99l4.11 4.71 0.32 -0.35 -2.67 3.66 -2.35 3.67 -2.04 3.68 -1.73 3.68 -1.44 3.68 -1.15 3.67 -0.87 3.66 -0.61 3.64 -0.35 3.62 -0.09 3.59 0.15 3.56 0.39 3.53 0.62 3.48 0.85 3.44 1.07 3.38 1.28 3.32 1.49 3.26 1.69 3.19 1.88 3.1 2.07 3.02 2.25 2.92 2.42 2.82 2.58 2.71 2.74 2.59 2.89 2.47 3.04 2.34 3.18 2.2 3.3 2.05 3.43 1.9 3.54 1.73 3.65 1.57 3.75 1.39 -1.91 6.04 -4.02 -1.49 -3.92 -1.68 -3.81 -1.87 -3.69 -2.04 -3.56 -2.21 -3.43 -2.37 -3.28 -2.52 -3.13 -2.67 -2.98 -2.81 -2.81 -2.95 -2.64 -3.07 -2.46 -3.2 -2.27 -3.31 -2.07 -3.42 -1.86 -3.52 -1.65 -3.61 -1.42 -3.7 -1.19 -3.78 -0.95 -3.85 -0.7 -3.91 -0.44 -3.97 -0.17 -4.01 0.11 -4.05 0.39 -4.08 0.68 -4.1 0.98 -4.1 1.29 -4.1 1.6 -4.09 1.92 -4.07 2.24 -4.05 2.57 -4.01 2.9 -3.97 0.32 -0.35zm-0.32 0.35l0.14 -0.18 0.17 -0.17 -0.32 0.35zm78.23 23.19l-6.1 0.39 0.01 0.12 -0.29 -1.98 -0.5 -1.97 -0.71 -1.96 -0.9 -1.94 -1.1 -1.92 -1.28 -1.88 -1.46 -1.84 -1.63 -1.78 -1.79 -1.72 -1.94 -1.64 -2.07 -1.56 -2.2 -1.46 -2.31 -1.36 -2.41 -1.25 -2.5 -1.13 -2.57 -1 -2.64 -0.86 -2.69 -0.72 -2.73 -0.57 -2.76 -0.41 -2.78 -0.25 -2.78 -0.08 -2.77 0.1 -2.75 0.28 -2.72 0.47 -2.68 0.66 -2.63 0.86 -2.58 1.07 -2.51 1.28 -2.43 1.5 -2.35 1.73 -2.26 1.97 -4.11 -4.71 2.64 -2.3 2.75 -2.03 2.85 -1.76 2.94 -1.5 3 -1.25 3.06 -1 3.1 -0.77 3.13 -0.54 3.15 -0.32 3.15 -0.11 3.14 0.09 3.12 0.28 3.1 0.46 3.06 0.64 3.01 0.8 2.94 0.96 2.87 1.11 2.79 1.26 2.7 1.4 2.59 1.53 2.48 1.65 2.36 1.77 2.22 1.88 2.07 1.99 1.91 2.09 1.74 2.19 1.56 2.28 1.36 2.37 1.14 2.46 0.91 2.53 0.66 2.6 0.39 2.66 0.01 0.12zm-0.01 -0.12l0 0.05 0 0.06 -0.01 -0.12zm-43.08 29.01l-5.23 3.28 3.61 -4.65 1.56 0.51 1.6 0.42 1.64 0.33 1.67 0.25 1.69 0.15 1.71 0.06 1.71 -0.02 1.71 -0.11 1.71 -0.2 1.7 -0.29 1.68 -0.38 1.65 -0.47 1.62 -0.56 1.58 -0.64 1.53 -0.73 1.48 -0.82 1.42 -0.9 1.36 -0.98 1.29 -1.07 1.22 -1.15 1.14 -1.23 1.05 -1.31 0.97 -1.39 0.88 -1.48 0.78 -1.56 0.68 -1.65 0.57 -1.74 0.46 -1.84 0.34 -1.93 0.21 -2.03 0.08 -2.13 -0.06 -2.24 6.1 -0.39 0.07 2.66 -0.1 2.57 -0.26 2.48 -0.42 2.39 -0.57 2.29 -0.72 2.19 -0.86 2.09 -0.99 1.98 -1.11 1.88 -1.22 1.77 -1.33 1.65 -1.43 1.55 -1.52 1.43 -1.6 1.32 -1.67 1.21 -1.74 1.1 -1.8 0.99 -1.85 0.88 -1.89 0.77 -1.93 0.66 -1.96 0.56 -1.98 0.45 -2 0.35 -2.01 0.24 -2.02 0.13 -2.02 0.03 -2.01 -0.08 -2 -0.18 -1.99 -0.29 -1.96 -0.4 -1.93 -0.51 -1.89 -0.62 3.61 -4.65zm-5.23 3.28l-4.32 -7.49 7.93 2.84 -3.61 4.65zm93.87 7.64l-2.14 5.96 2.75 -0.32 -2.77 1.79 -2.87 1.65 -2.96 1.51 -3.05 1.37 -3.12 1.23 -3.18 1.09 -3.24 0.95 -3.29 0.81 -3.32 0.67 -3.35 0.53 -3.37 0.4 -3.39 0.25 -3.39 0.12 -3.38 -0.02 -3.37 -0.17 -3.35 -0.31 -3.32 -0.45 -3.27 -0.59 -3.23 -0.74 -3.17 -0.88 -3.1 -1.03 -3.03 -1.18 -2.94 -1.33 -2.85 -1.48 -2.74 -1.64 -2.63 -1.79 -2.51 -1.95 -2.37 -2.1 -2.23 -2.26 -2.07 -2.42 -1.9 -2.58 -1.72 -2.74 5.23 -3.28 1.47 2.34 1.63 2.21 1.78 2.08 1.93 1.96 2.06 1.83 2.2 1.7 2.32 1.58 2.44 1.45 2.55 1.33 2.65 1.2 2.74 1.07 2.82 0.94 2.89 0.81 2.96 0.68 3.01 0.55 3.06 0.42 3.09 0.29 3.12 0.15 3.14 0.02 3.15 -0.11 3.14 -0.24 3.13 -0.37 3.11 -0.5 3.08 -0.62 3.04 -0.75 2.99 -0.88 2.93 -1 2.86 -1.13 2.78 -1.25 2.7 -1.38 2.6 -1.5 2.5 -1.62 2.75 -0.32zm-2.75 0.32l1.3 -0.89 1.45 0.57 -2.75 0.32z"/>
   </g>
   <g>
    <path class="fil2" d="M85.8 366.44c-0.17,7.71 2.37,15.09 8.64,23.23 -15.17,-8.29 -29.66,-19.7 -39.77,-31.87 11.35,7.21 21.8,7.25 31.13,8.64z"/>
    <path id="1" class="fil3" d="M93.02 392.49l2.83 -5.64 -3.8 4.81 -0.61 -0.8 -0.58 -0.8 -0.56 -0.79 -0.54 -0.79 -0.52 -0.79 -0.5 -0.79 -0.48 -0.79 -0.46 -0.79 -0.44 -0.79 -0.42 -0.79 -0.4 -0.79 -0.38 -0.79 -0.36 -0.79 -0.34 -0.78 -0.32 -0.79 -0.3 -0.79 -0.28 -0.79 -0.26 -0.79 -0.24 -0.79 -0.22 -0.79 -0.2 -0.79 -0.18 -0.79 -0.16 -0.79 -0.14 -0.79 -0.12 -0.79 -0.1 -0.79 -0.08 -0.79 -0.06 -0.8 -0.04 -0.79 -0.03 -0.79 -0.01 -0.8 0.01 -0.8 6.11 0.15 -0.01 0.65 0.01 0.65 0.02 0.64 0.04 0.64 0.05 0.64 0.07 0.64 0.08 0.64 0.1 0.64 0.11 0.64 0.13 0.64 0.14 0.64 0.16 0.64 0.18 0.64 0.19 0.64 0.21 0.64 0.23 0.65 0.25 0.65 0.26 0.65 0.28 0.66 0.3 0.66 0.32 0.66 0.34 0.67 0.36 0.67 0.38 0.68 0.4 0.68 0.42 0.69 0.44 0.69 0.46 0.7 0.48 0.7 0.5 0.71 0.52 0.72 0.55 0.72 -3.8 4.81zm-36.76 -37.4l-3.18 5.43 3.9 -4.8 0.93 1.1 0.95 1.1 0.98 1.09 1 1.09 1.03 1.09 1.05 1.08 1.07 1.07 1.09 1.07 1.11 1.06 1.13 1.05 1.15 1.05 1.17 1.04 1.19 1.03 1.21 1.02 1.22 1.01 1.24 1 1.25 0.99 1.27 0.98 1.28 0.96 1.29 0.95 1.3 0.94 1.32 0.93 1.33 0.91 1.34 0.9 1.35 0.88 1.35 0.87 1.36 0.85 1.37 0.84 1.38 0.82 1.38 0.8 1.39 0.79 1.39 0.77 -2.83 5.64 -1.45 -0.8 -1.44 -0.82 -1.44 -0.84 -1.43 -0.86 -1.43 -0.87 -1.42 -0.89 -1.41 -0.9 -1.4 -0.92 -1.39 -0.93 -1.38 -0.95 -1.37 -0.96 -1.36 -0.98 -1.35 -0.99 -1.33 -1.01 -1.32 -1.02 -1.31 -1.03 -1.29 -1.04 -1.28 -1.05 -1.26 -1.07 -1.24 -1.07 -1.23 -1.09 -1.21 -1.1 -1.19 -1.1 -1.17 -1.11 -1.15 -1.12 -1.13 -1.13 -1.11 -1.14 -1.09 -1.15 -1.06 -1.15 -1.04 -1.16 -1.01 -1.17 -0.99 -1.17 3.9 -4.8zm32.59 11.43l-6.11 -0.15 2.62 3.23 -0.85 -0.12 -0.86 -0.12 -0.88 -0.11 -0.89 -0.11 -0.9 -0.11 -0.91 -0.11 -0.92 -0.11 -0.93 -0.12 -0.94 -0.12 -0.96 -0.13 -0.97 -0.14 -0.97 -0.15 -0.98 -0.16 -0.99 -0.17 -1.01 -0.19 -1.01 -0.2 -1.02 -0.22 -1.03 -0.24 -1.04 -0.26 -1.05 -0.29 -1.06 -0.31 -1.07 -0.34 -1.07 -0.37 -1.08 -0.4 -1.09 -0.43 -1.1 -0.46 -1.1 -0.5 -1.11 -0.53 -1.12 -0.58 -1.12 -0.61 -1.12 -0.65 -1.13 -0.7 3.18 -5.43 1 0.61 0.99 0.58 0.98 0.54 0.98 0.5 0.97 0.47 0.97 0.44 0.96 0.41 0.96 0.38 0.95 0.35 0.95 0.33 0.95 0.3 0.94 0.28 0.94 0.26 0.94 0.24 0.93 0.22 0.93 0.2 0.93 0.19 0.93 0.17 0.92 0.16 0.92 0.15 0.92 0.14 0.92 0.13 0.91 0.12 0.91 0.12 0.91 0.11 0.91 0.11 0.91 0.11 0.91 0.11 0.91 0.11 0.91 0.12 0.91 0.12 0.9 0.13 2.62 3.23zm-2.62 -3.23l2.69 0.4 -0.06 2.83 -2.62 -3.23z"/>
   </g>
   <g>
    <path class="fil2" d="M146.62 303.12l42.2 16.47c-23.94,15.53 -77.56,34.6 -126.18,21.12 -41.94,-14.38 -67.87,-61.08 -36.35,-101.56 25.52,-24.16 70.46,-3.49 72.81,21.37 1.57,26.6 -24.47,36.85 -42.66,30.34 16.06,27.83 62.65,31.13 90.18,12.26z"/>
    <path id="1" class="fil3" d="M187.75 322.56l-42.2 -16.47 2.14 -5.96 42.2 16.47 0.55 5.68 -2.69 0.28zm2.14 -5.96l5.81 2.27 -5.26 3.41 -0.55 -5.68zm-128.2 27.12l1.91 -6.04 -0.17 -0.05 4.46 1.14 4.48 0.96 4.5 0.79 4.52 0.62 4.52 0.46 4.53 0.31 4.52 0.16 4.51 0.02 4.49 -0.12 4.47 -0.25 4.44 -0.37 4.4 -0.48 4.35 -0.59 4.3 -0.7 4.25 -0.79 4.18 -0.88 4.11 -0.97 4.04 -1.05 3.95 -1.12 3.86 -1.18 3.77 -1.24 3.66 -1.29 3.55 -1.33 3.44 -1.37 3.31 -1.4 3.18 -1.42 3.05 -1.44 2.9 -1.45 2.75 -1.46 2.6 -1.45 2.43 -1.44 2.26 -1.42 3.23 5.4 -2.4 1.51 -2.56 1.52 -2.72 1.52 -2.88 1.52 -3.02 1.51 -3.16 1.5 -3.3 1.48 -3.43 1.45 -3.55 1.42 -3.67 1.38 -3.78 1.33 -3.88 1.28 -3.98 1.22 -4.07 1.15 -4.16 1.08 -4.24 1 -4.32 0.91 -4.38 0.82 -4.45 0.72 -4.5 0.61 -4.55 0.5 -4.6 0.38 -4.63 0.25 -4.66 0.12 -4.69 -0.02 -4.71 -0.17 -4.72 -0.32 -4.73 -0.48 -4.73 -0.65 -4.72 -0.83 -4.71 -1.01 -4.68 -1.2 -0.17 -0.05zm0.17 0.05l-0.08 -0.02 -0.09 -0.03 0.17 0.05zm-37.62 -106.99l4.11 4.71 0.32 -0.35 -2.67 3.66 -2.35 3.67 -2.04 3.68 -1.73 3.68 -1.44 3.68 -1.15 3.67 -0.87 3.66 -0.61 3.64 -0.35 3.62 -0.09 3.59 0.15 3.56 0.39 3.53 0.62 3.48 0.85 3.44 1.07 3.38 1.28 3.32 1.49 3.26 1.69 3.19 1.88 3.1 2.07 3.02 2.25 2.92 2.42 2.82 2.58 2.71 2.74 2.59 2.89 2.47 3.04 2.34 3.18 2.2 3.3 2.05 3.43 1.9 3.54 1.73 3.65 1.57 3.75 1.39 -1.91 6.04 -4.02 -1.49 -3.92 -1.68 -3.81 -1.87 -3.69 -2.04 -3.56 -2.21 -3.43 -2.37 -3.28 -2.52 -3.13 -2.67 -2.98 -2.81 -2.81 -2.95 -2.64 -3.07 -2.46 -3.2 -2.27 -3.31 -2.07 -3.42 -1.86 -3.52 -1.65 -3.61 -1.42 -3.7 -1.19 -3.78 -0.95 -3.85 -0.7 -3.91 -0.44 -3.97 -0.17 -4.01 0.11 -4.05 0.39 -4.08 0.68 -4.1 0.98 -4.1 1.29 -4.1 1.6 -4.09 1.92 -4.07 2.24 -4.05 2.57 -4.01 2.9 -3.97 0.32 -0.35zm-0.32 0.35l0.14 -0.18 0.17 -0.17 -0.32 0.35zm78.23 23.19l-6.1 0.39 0.01 0.12 -0.29 -1.98 -0.5 -1.97 -0.71 -1.96 -0.9 -1.94 -1.1 -1.92 -1.28 -1.88 -1.46 -1.84 -1.63 -1.78 -1.79 -1.72 -1.94 -1.64 -2.07 -1.56 -2.2 -1.46 -2.31 -1.36 -2.41 -1.25 -2.5 -1.12 -2.58 -1 -2.64 -0.86 -2.69 -0.72 -2.73 -0.57 -2.76 -0.41 -2.77 -0.25 -2.78 -0.08 -2.77 0.1 -2.75 0.28 -2.72 0.47 -2.68 0.66 -2.63 0.86 -2.58 1.07 -2.51 1.28 -2.43 1.5 -2.35 1.73 -2.26 1.97 -4.11 -4.71 2.64 -2.3 2.75 -2.03 2.85 -1.76 2.94 -1.5 3 -1.25 3.06 -1 3.1 -0.77 3.13 -0.54 3.15 -0.32 3.15 -0.11 3.14 0.09 3.13 0.28 3.1 0.46 3.06 0.64 3.01 0.8 2.95 0.96 2.87 1.11 2.79 1.26 2.7 1.4 2.6 1.53 2.48 1.65 2.36 1.77 2.22 1.88 2.07 1.99 1.91 2.09 1.74 2.19 1.56 2.28 1.36 2.37 1.14 2.46 0.91 2.53 0.66 2.6 0.39 2.66 0.01 0.12zm-0.01 -0.12l0 0.05 0 0.06 -0.01 -0.12zm-43.08 29.01l-5.23 3.28 3.61 -4.65 1.56 0.51 1.6 0.42 1.64 0.33 1.67 0.25 1.69 0.15 1.71 0.06 1.71 -0.02 1.71 -0.11 1.71 -0.2 1.7 -0.29 1.68 -0.38 1.65 -0.47 1.62 -0.56 1.58 -0.64 1.53 -0.73 1.48 -0.82 1.42 -0.9 1.36 -0.98 1.29 -1.07 1.22 -1.15 1.14 -1.23 1.05 -1.31 0.97 -1.39 0.88 -1.48 0.78 -1.56 0.68 -1.65 0.57 -1.74 0.46 -1.84 0.34 -1.93 0.21 -2.03 0.08 -2.13 -0.06 -2.24 6.1 -0.39 0.07 2.66 -0.1 2.57 -0.26 2.48 -0.42 2.39 -0.57 2.29 -0.72 2.19 -0.86 2.09 -0.99 1.98 -1.11 1.88 -1.22 1.77 -1.33 1.66 -1.43 1.54 -1.52 1.43 -1.6 1.32 -1.67 1.21 -1.74 1.1 -1.8 0.99 -1.85 0.88 -1.89 0.77 -1.93 0.66 -1.96 0.56 -1.98 0.45 -2 0.35 -2.01 0.24 -2.02 0.13 -2.02 0.03 -2.01 -0.08 -2 -0.18 -1.99 -0.29 -1.96 -0.4 -1.93 -0.51 -1.89 -0.62 3.61 -4.65zm-5.23 3.28l-4.32 -7.49 7.93 2.84 -3.61 4.65zm93.87 7.64l-2.14 5.96 2.75 -0.32 -2.77 1.79 -2.87 1.65 -2.96 1.51 -3.05 1.37 -3.12 1.23 -3.18 1.09 -3.24 0.95 -3.29 0.81 -3.32 0.67 -3.35 0.53 -3.37 0.4 -3.39 0.25 -3.39 0.12 -3.38 -0.03 -3.37 -0.17 -3.35 -0.31 -3.32 -0.45 -3.27 -0.59 -3.23 -0.74 -3.17 -0.88 -3.1 -1.03 -3.03 -1.18 -2.94 -1.33 -2.85 -1.48 -2.74 -1.64 -2.63 -1.79 -2.51 -1.95 -2.37 -2.1 -2.23 -2.26 -2.07 -2.42 -1.9 -2.58 -1.72 -2.74 5.23 -3.28 1.47 2.34 1.63 2.21 1.78 2.08 1.93 1.96 2.06 1.83 2.2 1.7 2.32 1.58 2.44 1.45 2.55 1.33 2.65 1.2 2.74 1.07 2.82 0.94 2.89 0.81 2.96 0.68 3.01 0.55 3.06 0.42 3.09 0.29 3.12 0.15 3.14 0.02 3.15 -0.11 3.14 -0.24 3.13 -0.37 3.11 -0.5 3.08 -0.62 3.04 -0.75 2.99 -0.88 2.93 -1 2.86 -1.13 2.79 -1.25 2.7 -1.37 2.6 -1.5 2.5 -1.62 2.75 -0.32zm-2.75 0.32l1.3 -0.89 1.45 0.57 -2.75 0.32z"/>
   </g>
   <g>
    <path class="fil2" d="M46.91 69.73c-43.15,42.38 -49.71,95.42 -39.86,132.47 9.77,26.77 54.83,26.9 63.26,-18.44 -47.18,-1.51 -50.88,-59.43 -23.41,-114.03z"/>
    <path id="1" class="fil3" d="M9.91 201.07l-5.71 2.26 -0.09 -0.28 -0.9 -3.62 -0.8 -3.71 -0.69 -3.8 -0.58 -3.87 -0.47 -3.95 -0.35 -4.02 -0.23 -4.08 -0.1 -4.14 0.03 -4.2 0.16 -4.25 0.3 -4.29 0.44 -4.33 0.58 -4.37 0.73 -4.4 0.88 -4.42 1.04 -4.44 1.19 -4.46 1.36 -4.47 1.52 -4.48 1.69 -4.48 1.87 -4.47 2.04 -4.46 2.23 -4.44 2.41 -4.43 2.6 -4.4 2.79 -4.37 2.99 -4.33 3.18 -4.29 3.39 -4.25 3.59 -4.2 3.8 -4.14 4.01 -4.08 4.19 4.63 -3.86 3.93 -3.66 3.98 -3.45 4.03 -3.25 4.08 -3.05 4.11 -2.86 4.15 -2.67 4.18 -2.48 4.21 -2.3 4.23 -2.13 4.25 -1.95 4.26 -1.78 4.27 -1.61 4.27 -1.45 4.27 -1.29 4.26 -1.14 4.25 -0.99 4.23 -0.84 4.21 -0.69 4.19 -0.55 4.16 -0.42 4.13 -0.28 4.08 -0.15 4.04 -0.03 3.99 0.1 3.94 0.21 3.87 0.33 3.81 0.44 3.74 0.55 3.67 0.65 3.59 0.75 3.51 0.85 3.42 -0.09 -0.28zm-5.71 2.26l-0.05 -0.14 -0.04 -0.14 0.09 0.28zm66.02 -16.39l0.18 -6.36 2.91 3.79 -0.94 4.31 -1.16 4.06 -1.36 3.8 -1.55 3.55 -1.73 3.29 -1.9 3.04 -2.05 2.79 -2.19 2.54 -2.32 2.29 -2.43 2.04 -2.52 1.79 -2.6 1.54 -2.66 1.3 -2.71 1.06 -2.75 0.82 -2.77 0.58 -2.77 0.35 -2.77 0.13 -2.75 -0.1 -2.71 -0.32 -2.66 -0.53 -2.6 -0.75 -2.52 -0.96 -2.43 -1.17 -2.32 -1.38 -2.2 -1.58 -2.06 -1.78 -1.91 -1.98 -1.74 -2.17 -1.55 -2.36 -1.35 -2.54 -1.13 -2.71 5.71 -2.26 0.9 2.15 1.07 2 1.23 1.86 1.38 1.71 1.51 1.57 1.64 1.42 1.76 1.26 1.87 1.11 1.97 0.95 2.05 0.78 2.12 0.61 2.18 0.44 2.23 0.26 2.27 0.08 2.29 -0.11 2.3 -0.29 2.3 -0.49 2.29 -0.68 2.26 -0.88 2.22 -1.08 2.17 -1.29 2.12 -1.5 2.04 -1.72 1.96 -1.94 1.87 -2.16 1.76 -2.39 1.64 -2.63 1.51 -2.88 1.37 -3.13 1.21 -3.39 1.04 -3.65 0.85 -3.92 2.91 3.79zm0.18 -6.36l3.59 0.11 -0.68 3.67 -2.91 -3.79zm-21.4 -108.53l-4.19 -4.63 4.8 3.8 -2.44 5.04 -2.26 5.04 -2.07 5.04 -1.89 5.03 -1.7 5 -1.51 4.96 -1.31 4.91 -1.12 4.84 -0.92 4.77 -0.72 4.68 -0.52 4.59 -0.32 4.48 -0.11 4.35 0.09 4.22 0.3 4.08 0.5 3.92 0.71 3.75 0.91 3.57 1.12 3.39 1.32 3.19 1.52 2.98 1.72 2.77 1.93 2.55 2.14 2.33 2.35 2.11 2.57 1.88 2.79 1.64 3.03 1.39 3.28 1.14 3.53 0.87 3.8 0.59 4.06 0.29 -0.18 6.36 -4.53 -0.32 -4.29 -0.66 -4.05 -1 -3.81 -1.32 -3.57 -1.64 -3.32 -1.95 -3.06 -2.24 -2.81 -2.52 -2.54 -2.78 -2.28 -3.02 -2.02 -3.25 -1.76 -3.45 -1.51 -3.65 -1.26 -3.83 -1.02 -3.99 -0.78 -4.15 -0.55 -4.29 -0.32 -4.42 -0.1 -4.55 0.12 -4.66 0.34 -4.76 0.55 -4.85 0.76 -4.94 0.97 -5.01 1.17 -5.07 1.37 -5.12 1.57 -5.16 1.76 -5.19 1.96 -5.22 2.15 -5.23 2.34 -5.23 2.53 -5.22 4.8 3.8z"/>
   </g>
   <g>
    <path class="fil2" d="M305.27 41.19c9.63,27.95 3.3,48.36 -7.3,62.73 25.11,8.89 55.9,1.72 44.98,-26.17 -8.42,-13.73 -15.2,-22.43 -37.67,-36.56z"/>
    <path id="1" class="fil3" d="M298.94 100.91l-1.96 6.03 -1.44 -4.95 0.93 -1.3 0.91 -1.33 0.88 -1.37 0.85 -1.4 0.82 -1.43 0.78 -1.47 0.75 -1.5 0.71 -1.53 0.67 -1.57 0.62 -1.6 0.58 -1.64 0.53 -1.67 0.48 -1.71 0.44 -1.75 0.38 -1.78 0.33 -1.82 0.27 -1.86 0.21 -1.9 0.16 -1.94 0.1 -1.98 0.03 -2.02 -0.04 -2.06 -0.11 -2.11 -0.18 -2.15 -0.25 -2.19 -0.33 -2.24 -0.4 -2.28 -0.48 -2.33 -0.57 -2.37 -0.65 -2.42 -0.74 -2.46 -0.83 -2.52 5.75 -2.15 0.88 2.68 0.79 2.64 0.7 2.6 0.61 2.56 0.52 2.52 0.44 2.48 0.35 2.44 0.27 2.4 0.19 2.36 0.12 2.32 0.04 2.28 -0.03 2.24 -0.1 2.2 -0.17 2.16 -0.24 2.12 -0.3 2.08 -0.37 2.04 -0.43 1.99 -0.49 1.95 -0.54 1.91 -0.6 1.87 -0.65 1.83 -0.7 1.79 -0.74 1.75 -0.79 1.71 -0.83 1.67 -0.87 1.63 -0.9 1.59 -0.94 1.55 -0.97 1.51 -1 1.47 -1.03 1.43 -1.44 -4.95zm-1.96 6.03l-4.04 -1.43 2.6 -3.52 1.44 4.95zm43.39 -27.47l5.15 -3.42 0.25 0.51 0.98 2.76 0.73 2.67 0.49 2.58 0.25 2.5 0.01 2.4 -0.22 2.31 -0.45 2.2 -0.68 2.08 -0.89 1.95 -1.09 1.81 -1.27 1.66 -1.44 1.51 -1.58 1.36 -1.71 1.21 -1.82 1.07 -1.93 0.93 -2.02 0.8 -2.1 0.68 -2.18 0.56 -2.25 0.44 -2.31 0.33 -2.37 0.21 -2.41 0.11 -2.45 -0 -2.48 -0.11 -2.51 -0.21 -2.52 -0.32 -2.53 -0.42 -2.53 -0.52 -2.52 -0.62 -2.5 -0.72 -2.48 -0.82 1.96 -6.03 2.26 0.75 2.28 0.66 2.3 0.57 2.3 0.48 2.3 0.38 2.29 0.29 2.27 0.19 2.24 0.1 2.19 0 2.14 -0.09 2.08 -0.19 2.01 -0.29 1.93 -0.38 1.84 -0.47 1.74 -0.56 1.63 -0.65 1.52 -0.74 1.39 -0.82 1.26 -0.9 1.13 -0.97 0.99 -1.04 0.86 -1.11 0.72 -1.19 0.59 -1.28 0.45 -1.38 0.31 -1.49 0.16 -1.61 -0.01 -1.75 -0.19 -1.89 -0.39 -2.04 -0.6 -2.19 -0.83 -2.35 0.25 0.51zm5.15 -3.42l0.15 0.24 0.11 0.27 -0.25 -0.51zm-37.37 -35.92l-5.75 2.15 4.45 -3.8 2.09 1.32 2 1.3 1.91 1.27 1.83 1.24 1.76 1.22 1.68 1.2 1.61 1.18 1.54 1.17 1.48 1.15 1.42 1.14 1.36 1.13 1.3 1.12 1.25 1.11 1.2 1.11 1.15 1.11 1.1 1.1 1.06 1.1 1.03 1.11 0.99 1.11 0.96 1.11 0.93 1.12 0.9 1.13 0.87 1.13 0.85 1.15 0.83 1.16 0.82 1.17 0.81 1.19 0.8 1.2 0.79 1.22 0.79 1.24 0.79 1.26 0.8 1.29 -5.15 3.42 -0.78 -1.26 -0.77 -1.23 -0.76 -1.2 -0.76 -1.17 -0.76 -1.14 -0.76 -1.12 -0.77 -1.1 -0.78 -1.08 -0.79 -1.06 -0.81 -1.05 -0.83 -1.04 -0.85 -1.03 -0.88 -1.02 -0.91 -1.02 -0.94 -1.02 -0.98 -1.02 -1.02 -1.02 -1.06 -1.02 -1.11 -1.03 -1.17 -1.04 -1.22 -1.05 -1.28 -1.06 -1.34 -1.08 -1.4 -1.1 -1.47 -1.11 -1.54 -1.14 -1.62 -1.15 -1.69 -1.18 -1.78 -1.21 -1.86 -1.23 -1.95 -1.26 -2.04 -1.29 4.45 -3.8zm-5.75 2.15l-2.9 -8.42 7.35 4.62 -4.45 3.8z"/>
   </g>
   <g>
    <path class="fil2" d="M384.45 207.98c3.78,42.77 -13.2,106.52 -45.08,106.75 -18.65,-2.96 -39.23,-17.29 -40.79,-46.67 39.33,18.49 70.96,-15.03 85.87,-60.08z"/>
    <path id="1" class="fil3" d="M338.91 317.88l0.91 -6.29 -0.48 -0.04 2.58 -0.18 2.5 -0.49 2.43 -0.8 2.37 -1.09 2.32 -1.38 2.26 -1.67 2.21 -1.94 2.14 -2.21 2.07 -2.47 2 -2.71 1.92 -2.93 1.84 -3.14 1.75 -3.34 1.66 -3.52 1.56 -3.68 1.47 -3.83 1.37 -3.96 1.27 -4.07 1.17 -4.17 1.06 -4.25 0.95 -4.31 0.85 -4.36 0.74 -4.4 0.63 -4.41 0.52 -4.41 0.41 -4.4 0.29 -4.37 0.18 -4.32 0.06 -4.25 -0.05 -4.18 -0.17 -4.08 -0.29 -3.96 6.08 -0.58 0.3 4.17 0.18 4.27 0.06 4.36 -0.07 4.43 -0.19 4.49 -0.3 4.53 -0.42 4.56 -0.54 4.58 -0.65 4.58 -0.77 4.56 -0.88 4.53 -0.99 4.48 -1.11 4.42 -1.22 4.35 -1.33 4.26 -1.44 4.16 -1.55 4.03 -1.66 3.9 -1.77 3.75 -1.88 3.59 -1.99 3.41 -2.11 3.22 -2.22 3.01 -2.34 2.79 -2.47 2.54 -2.59 2.28 -2.72 2 -2.85 1.7 -2.98 1.37 -3.1 1.01 -3.21 0.63 -3.31 0.23 -0.48 -0.04zm0.48 0.04l-0.24 0 -0.24 -0.04 0.48 0.04zm-39.56 -52.75l-2.51 5.8 4.3 -3.07 0.19 2.57 0.29 2.48 0.39 2.39 0.48 2.3 0.57 2.22 0.66 2.13 0.74 2.05 0.82 1.97 0.89 1.89 0.96 1.81 1.03 1.74 1.09 1.66 1.15 1.59 1.21 1.51 1.26 1.44 1.32 1.37 1.36 1.3 1.41 1.23 1.45 1.16 1.49 1.09 1.52 1.02 1.55 0.95 1.58 0.88 1.6 0.81 1.62 0.75 1.64 0.68 1.65 0.61 1.66 0.55 1.66 0.48 1.66 0.42 1.66 0.36 1.65 0.29 -0.91 6.29 -1.86 -0.33 -1.86 -0.4 -1.87 -0.47 -1.87 -0.54 -1.86 -0.62 -1.86 -0.69 -1.84 -0.77 -1.83 -0.84 -1.81 -0.92 -1.79 -1 -1.76 -1.08 -1.73 -1.16 -1.69 -1.24 -1.65 -1.32 -1.61 -1.4 -1.56 -1.49 -1.51 -1.57 -1.46 -1.65 -1.39 -1.74 -1.33 -1.82 -1.26 -1.91 -1.18 -2 -1.1 -2.08 -1.02 -2.17 -0.93 -2.25 -0.84 -2.34 -0.75 -2.43 -0.65 -2.51 -0.54 -2.6 -0.44 -2.68 -0.33 -2.77 -0.21 -2.85 4.3 -3.07zm-4.3 3.07l-0.28 -5.23 4.58 2.15 -4.3 3.07zm91.97 -60.54l-6.08 0.58 5.93 0.75 -1.47 4.27 -1.57 4.19 -1.67 4.11 -1.77 4.03 -1.86 3.93 -1.96 3.83 -2.05 3.72 -2.14 3.6 -2.23 3.48 -2.32 3.34 -2.41 3.2 -2.5 3.06 -2.58 2.9 -2.67 2.74 -2.76 2.57 -2.84 2.39 -2.93 2.2 -3.01 2.01 -3.09 1.8 -3.17 1.58 -3.25 1.36 -3.32 1.13 -3.4 0.88 -3.46 0.63 -3.52 0.37 -3.59 0.1 -3.64 -0.18 -3.69 -0.47 -3.73 -0.76 -3.77 -1.05 -3.81 -1.35 -3.84 -1.66 2.51 -5.8 3.49 1.51 3.43 1.22 3.37 0.94 3.31 0.67 3.25 0.41 3.19 0.16 3.13 -0.08 3.08 -0.32 3.03 -0.55 2.97 -0.77 2.92 -0.99 2.87 -1.2 2.82 -1.41 2.76 -1.61 2.71 -1.81 2.65 -2 2.59 -2.18 2.53 -2.36 2.47 -2.53 2.4 -2.7 2.33 -2.85 2.26 -3.01 2.19 -3.15 2.11 -3.29 2.03 -3.42 1.95 -3.54 1.87 -3.65 1.78 -3.76 1.69 -3.86 1.6 -3.95 1.51 -4.03 1.42 -4.11 5.93 0.75z"/>
   </g>
   <g>
    <path class="fil2" d="M162.78 166.71l37.49 24.47c72.49,-30.72 131.94,8.94 49.43,68.45 59.58,3.2 139.18,-45.93 131.67,-97.4 -28.71,-57.47 -141.56,-53.53 -218.59,4.48z"/>
    <path id="1" class="fil3" d="M198.65 193.87l-37.49 -24.47 3.24 -5.39 37.49 24.47 -0.47 5.64 -2.77 -0.25zm2.77 0.25l-1.45 0.61 -1.33 -0.87 2.77 0.25zm48.43 62.32l-0.31 6.36 -1.59 -5.8 7.22 -5.44 6.4 -5.3 5.61 -5.15 4.84 -4.98 4.09 -4.8 3.37 -4.6 2.68 -4.38 2.02 -4.15 1.39 -3.9 0.81 -3.63 0.27 -3.36 -0.23 -3.11 -0.69 -2.88 -1.13 -2.67 -1.57 -2.49 -2.02 -2.31 -2.46 -2.13 -2.9 -1.92 -3.32 -1.7 -3.73 -1.45 -4.11 -1.18 -4.47 -0.89 -4.8 -0.59 -5.1 -0.28 -5.38 0.05 -5.63 0.38 -5.86 0.73 -6.06 1.09 -6.24 1.46 -6.39 1.84 -6.52 2.23 -6.62 2.62 -2.31 -5.9 6.89 -2.73 6.79 -2.32 6.67 -1.92 6.53 -1.53 6.36 -1.15 6.18 -0.77 5.97 -0.41 5.74 -0.05 5.49 0.3 5.21 0.65 4.92 0.99 4.6 1.32 4.26 1.66 3.9 1.99 3.51 2.33 3.09 2.67 2.62 3.01 2.11 3.35 1.55 3.66 0.94 3.93 0.31 4.15 -0.34 4.33 -0.99 4.48 -1.65 4.62 -2.31 4.74 -2.98 4.87 -3.67 5 -4.37 5.13 -5.1 5.25 -5.85 5.37 -6.63 5.49 -7.43 5.6 -1.59 -5.8zm-0.31 6.36l-8.95 -0.48 7.37 -5.31 1.59 5.8zm129.11 -99.11l5.42 -2.94 0.31 0.99 0.48 5.15 -0.04 5.13 -0.54 5.08 -1.02 5.02 -1.47 4.94 -1.9 4.85 -2.3 4.76 -2.68 4.66 -3.04 4.55 -3.37 4.43 -3.69 4.31 -3.98 4.18 -4.25 4.04 -4.5 3.9 -4.74 3.75 -4.95 3.59 -5.15 3.42 -5.32 3.24 -5.48 3.06 -5.62 2.87 -5.74 2.67 -5.84 2.46 -5.92 2.24 -5.98 2.01 -6.02 1.77 -6.04 1.53 -6.05 1.27 -6.04 1.01 -6.01 0.73 -5.96 0.45 -5.89 0.15 -5.8 -0.15 0.31 -6.36 5.48 0.14 5.59 -0.15 5.68 -0.43 5.74 -0.7 5.79 -0.97 5.81 -1.22 5.82 -1.47 5.8 -1.71 5.77 -1.94 5.71 -2.16 5.63 -2.37 5.54 -2.57 5.42 -2.77 5.28 -2.95 5.13 -3.12 4.95 -3.28 4.75 -3.44 4.53 -3.58 4.29 -3.71 4.03 -3.83 3.76 -3.95 3.46 -4.04 3.15 -4.13 2.81 -4.21 2.46 -4.27 2.09 -4.32 1.71 -4.37 1.31 -4.4 0.9 -4.42 0.48 -4.44 0.04 -4.46 -0.42 -4.48 0.31 0.99zm5.42 -2.94l0.24 0.47 0.08 0.52 -0.31 -0.99zm-219.68 3.25l-3.24 5.39 -0.17 -5.28 7.43 -5.35 7.61 -5.03 7.78 -4.7 7.92 -4.38 8.05 -4.05 8.14 -3.72 8.22 -3.39 8.28 -3.06 8.32 -2.73 8.33 -2.4 8.32 -2.06 8.29 -1.73 8.24 -1.39 8.17 -1.05 8.07 -0.71 7.96 -0.37 7.82 -0.03 7.67 0.32 7.49 0.67 7.29 1.02 7.06 1.37 6.82 1.73 6.56 2.09 6.27 2.45 5.96 2.82 5.63 3.19 5.28 3.57 4.89 3.95 4.49 4.33 4.05 4.72 3.59 5.11 3.09 5.49 -5.42 2.94 -2.78 -4.93 -3.23 -4.59 -3.66 -4.26 -4.08 -3.94 -4.48 -3.62 -4.86 -3.29 -5.23 -2.96 -5.58 -2.64 -5.9 -2.31 -6.21 -1.97 -6.49 -1.64 -6.75 -1.31 -6.99 -0.97 -7.2 -0.64 -7.39 -0.3 -7.56 0.03 -7.71 0.36 -7.84 0.69 -7.94 1.02 -8.02 1.35 -8.07 1.68 -8.11 2.01 -8.12 2.34 -8.11 2.66 -8.07 2.99 -8.02 3.31 -7.94 3.63 -7.84 3.95 -7.72 4.26 -7.57 4.58 -7.41 4.89 -7.22 5.21 -0.17 -5.28zm-3.24 5.39l-3.84 -2.51 3.67 -2.77 0.17 5.28z"/>
   </g>
   <g>
    <path class="fil2" d="M119.22 198.55l40.29 22.95c-33.28,31.81 4.82,48.39 48.73,55.64 100.45,10.59 146.25,63.49 89.79,107.06 -36.11,30.43 -152.16,47.35 -185.49,7.51 -14.64,-46.42 43.46,-70.01 79.09,-48.88 13.48,16.1 -9.91,39.31 -33.43,43.01 31.8,16.89 103.41,3.27 91.58,-37.26 -23.81,-32.75 -135.8,-34.01 -147.89,-94.14 -2.47,-25.91 3.78,-40.11 17.33,-55.89z"/>
    <path id="1" class="fil3" d="M158.04 224.29l-40.29 -22.95 2.93 -5.58 40.29 22.95 0.6 5.14 -3.53 0.45zm2.93 -5.58l3.75 2.13 -3.14 3.01 -0.6 -5.14zm47.57 55.26l-0.61 6.33 -0.17 -0.02 -4.14 -0.71 -4.1 -0.77 -4.04 -0.83 -3.98 -0.89 -3.9 -0.95 -3.81 -1.01 -3.71 -1.08 -3.6 -1.14 -3.48 -1.21 -3.34 -1.28 -3.2 -1.35 -3.04 -1.43 -2.88 -1.51 -2.7 -1.6 -2.52 -1.69 -2.32 -1.79 -2.11 -1.9 -1.88 -2.01 -1.63 -2.14 -1.36 -2.28 -1.07 -2.41 -0.73 -2.54 -0.38 -2.65 -0 -2.73 0.38 -2.78 0.76 -2.81 1.13 -2.84 1.51 -2.87 1.88 -2.9 2.25 -2.95 2.64 -3 3.03 -3.06 4.13 4.69 -2.79 2.81 -2.38 2.7 -1.97 2.58 -1.58 2.45 -1.22 2.32 -0.87 2.18 -0.55 2.04 -0.26 1.91 0 1.8 0.25 1.72 0.48 1.67 0.73 1.64 0.97 1.62 1.23 1.61 1.48 1.59 1.73 1.56 1.98 1.52 2.2 1.48 2.42 1.43 2.63 1.38 2.82 1.33 3 1.27 3.16 1.21 3.31 1.16 3.45 1.1 3.57 1.04 3.69 0.98 3.78 0.92 3.87 0.87 3.94 0.81 4.01 0.75 4.06 0.7 -0.17 -0.02zm-0.61 6.33l-0.09 -0.01 -0.08 -0.01 0.17 0.02zm92.02 106.37l-3.84 -4.95 0.1 -0.08 4.84 -3.99 4.24 -4 3.66 -4.01 3.08 -4 2.52 -3.98 1.98 -3.94 1.46 -3.9 0.95 -3.85 0.47 -3.81 -0.01 -3.77 -0.47 -3.74 -0.93 -3.71 -1.39 -3.69 -1.85 -3.66 -2.31 -3.62 -2.78 -3.58 -3.24 -3.51 -3.69 -3.44 -4.14 -3.35 -4.58 -3.24 -5.01 -3.13 -5.44 -3 -5.85 -2.86 -6.26 -2.7 -6.65 -2.54 -7.04 -2.37 -7.42 -2.18 -7.79 -1.99 -8.15 -1.78 -8.49 -1.57 -8.84 -1.34 -9.17 -1.1 0.61 -6.33 9.34 1.13 9.02 1.37 8.68 1.6 8.34 1.82 7.99 2.04 7.63 2.24 7.26 2.44 6.89 2.63 6.5 2.81 6.11 2.98 5.71 3.15 5.3 3.31 4.89 3.46 4.46 3.61 4.02 3.75 3.58 3.88 3.12 4.02 2.64 4.14 2.15 4.26 1.64 4.37 1.11 4.46 0.57 4.54 0.01 4.59 -0.56 4.61 -1.14 4.61 -1.71 4.58 -2.28 4.54 -2.85 4.49 -3.42 4.44 -3.99 4.37 -4.57 4.31 -5.15 4.24 0.1 -0.08zm-3.84 -4.95l0.06 -0.05 0.05 -0.04 -0.1 0.08zm-186.47 10.98l5.8 -1.98 -0.6 -1.1 3.12 3.31 3.57 3.03 4 2.76 4.41 2.49 4.8 2.22 5.15 1.96 5.47 1.69 5.77 1.42 6.03 1.17 6.26 0.91 6.45 0.67 6.62 0.43 6.75 0.19 6.86 -0.03 6.93 -0.25 6.97 -0.46 6.98 -0.67 6.96 -0.86 6.91 -1.05 6.83 -1.23 6.72 -1.4 6.58 -1.57 6.41 -1.72 6.2 -1.87 5.97 -2 5.7 -2.13 5.4 -2.25 5.07 -2.36 4.71 -2.46 4.32 -2.55 3.89 -2.62 3.43 -2.67 3.84 4.95 -3.79 2.95 -4.21 2.83 -4.61 2.71 -4.97 2.59 -5.31 2.47 -5.61 2.34 -5.9 2.21 -6.15 2.07 -6.38 1.92 -6.57 1.77 -6.74 1.61 -6.88 1.43 -6.99 1.26 -7.07 1.07 -7.13 0.88 -7.15 0.68 -7.14 0.48 -7.11 0.26 -7.05 0.03 -6.96 -0.2 -6.84 -0.44 -6.69 -0.69 -6.51 -0.95 -6.31 -1.22 -6.08 -1.5 -5.82 -1.79 -5.53 -2.1 -5.21 -2.41 -4.86 -2.75 -4.48 -3.09 -4.07 -3.46 -3.61 -3.83 -0.6 -1.1zm0.6 1.1l-0.41 -0.49 -0.19 -0.61 0.6 1.1zm83.69 -53.06l-4.6 4.18 0.79 0.67 -3.21 -1.74 -3.32 -1.5 -3.42 -1.27 -3.5 -1.03 -3.57 -0.8 -3.62 -0.57 -3.65 -0.35 -3.66 -0.12 -3.65 0.1 -3.63 0.31 -3.59 0.52 -3.53 0.73 -3.45 0.93 -3.36 1.13 -3.24 1.33 -3.11 1.51 -2.96 1.69 -2.79 1.87 -2.61 2.04 -2.41 2.2 -2.2 2.36 -1.97 2.51 -1.73 2.66 -1.48 2.8 -1.22 2.95 -0.94 3.09 -0.64 3.24 -0.34 3.39 -0.01 3.55 0.33 3.7 0.7 3.86 1.09 4.02 -5.8 1.98 -1.23 -4.55 -0.81 -4.43 -0.39 -4.31 0.01 -4.17 0.4 -4.03 0.77 -3.87 1.12 -3.7 1.45 -3.52 1.76 -3.34 2.05 -3.14 2.31 -2.94 2.55 -2.74 2.77 -2.53 2.97 -2.32 3.15 -2.11 3.32 -1.9 3.46 -1.69 3.59 -1.47 3.7 -1.25 3.8 -1.03 3.87 -0.8 3.93 -0.57 3.98 -0.34 4 -0.11 4.01 0.13 4.01 0.38 3.98 0.63 3.94 0.88 3.88 1.15 3.81 1.41 3.71 1.68 3.6 1.96 0.79 0.67zm-0.79 -0.67l0.45 0.27 0.34 0.41 -0.79 -0.67zm-33.55 42.94l-2.77 5.67 0.93 -5.98 2.06 -0.38 2.06 -0.48 2.05 -0.58 2.04 -0.68 2.01 -0.77 1.98 -0.85 1.95 -0.93 1.9 -1.01 1.85 -1.08 1.79 -1.15 1.72 -1.21 1.65 -1.26 1.57 -1.31 1.48 -1.35 1.38 -1.39 1.28 -1.42 1.17 -1.44 1.06 -1.45 0.93 -1.46 0.81 -1.46 0.68 -1.46 0.54 -1.44 0.41 -1.42 0.27 -1.39 0.14 -1.36 -0 -1.34 -0.14 -1.31 -0.28 -1.29 -0.43 -1.28 -0.59 -1.28 -0.77 -1.28 -0.97 -1.28 4.6 -4.18 1.35 1.78 1.12 1.86 0.9 1.92 0.66 1.97 0.44 2 0.21 2.02 0 2.02 -0.2 2 -0.39 1.98 -0.56 1.95 -0.72 1.92 -0.87 1.88 -1.01 1.84 -1.15 1.79 -1.27 1.75 -1.38 1.7 -1.49 1.65 -1.59 1.6 -1.69 1.54 -1.77 1.48 -1.86 1.42 -1.93 1.35 -2 1.28 -2.06 1.2 -2.12 1.12 -2.17 1.04 -2.21 0.95 -2.25 0.86 -2.28 0.76 -2.31 0.65 -2.33 0.54 -2.35 0.43 0.93 -5.98zm-2.77 5.67l-8.48 -4.5 9.41 -1.48 -0.93 5.98zm90.53 -38.17l4.87 -3.84 0.49 1 0.95 4.08 0.45 3.96 -0.05 3.83 -0.52 3.67 -0.98 3.49 -1.39 3.3 -1.78 3.09 -2.13 2.88 -2.44 2.67 -2.72 2.46 -2.98 2.26 -3.21 2.06 -3.41 1.87 -3.6 1.69 -3.76 1.51 -3.9 1.33 -4.02 1.15 -4.12 0.97 -4.2 0.79 -4.26 0.62 -4.29 0.44 -4.3 0.26 -4.3 0.09 -4.27 -0.09 -4.22 -0.27 -4.15 -0.45 -4.06 -0.63 -3.95 -0.82 -3.82 -1 -3.66 -1.19 -3.49 -1.39 -3.29 -1.59 2.77 -5.67 2.89 1.4 3.12 1.24 3.32 1.08 3.5 0.92 3.65 0.76 3.78 0.59 3.89 0.42 3.97 0.25 4.02 0.09 4.06 -0.08 4.06 -0.25 4.05 -0.42 4.01 -0.58 3.95 -0.75 3.86 -0.91 3.75 -1.07 3.61 -1.23 3.45 -1.38 3.27 -1.53 3.06 -1.68 2.83 -1.82 2.58 -1.96 2.31 -2.09 2.02 -2.2 1.72 -2.32 1.4 -2.43 1.08 -2.54 0.75 -2.67 0.4 -2.82 0.04 -2.98 -0.36 -3.16 -0.79 -3.36 0.49 1zm4.87 -3.84l0.33 0.45 0.16 0.54 -0.49 -1zm-153.37 -91.91l6.08 -0.62 -0.05 -0.34 1.33 5.11 1.84 4.8 2.33 4.52 2.79 4.26 3.24 4.03 3.65 3.8 4.04 3.59 4.4 3.39 4.72 3.21 5.01 3.03 5.27 2.87 5.49 2.72 5.68 2.58 5.83 2.46 5.94 2.35 6.03 2.26 6.07 2.19 6.08 2.13 6.06 2.08 6 2.06 5.91 2.05 5.79 2.06 5.63 2.08 5.44 2.12 5.22 2.18 4.96 2.27 4.67 2.37 4.36 2.49 4.01 2.65 3.63 2.83 3.21 3.04 2.74 3.29 -4.87 3.84 -2.23 -2.67 -2.73 -2.58 -3.2 -2.5 -3.65 -2.41 -4.06 -2.32 -4.43 -2.24 -4.76 -2.18 -5.06 -2.12 -5.32 -2.08 -5.54 -2.05 -5.73 -2.04 -5.88 -2.04 -6 -2.06 -6.08 -2.09 -6.12 -2.14 -6.13 -2.21 -6.11 -2.3 -6.05 -2.4 -5.96 -2.52 -5.84 -2.66 -5.68 -2.81 -5.49 -2.99 -5.26 -3.18 -5.01 -3.4 -4.71 -3.64 -4.38 -3.9 -4.01 -4.18 -3.6 -4.48 -3.15 -4.8 -2.65 -5.14 -2.1 -5.48 -1.51 -5.82 -0.05 -0.34zm0.05 0.34l-0.03 -0.17 -0.02 -0.17 0.05 0.34zm21.79 -59.33l-2.93 5.58 3.74 -0.67 -1.22 1.44 -1.18 1.43 -1.13 1.42 -1.08 1.42 -1.04 1.41 -0.99 1.41 -0.95 1.41 -0.9 1.41 -0.86 1.42 -0.81 1.43 -0.76 1.44 -0.72 1.45 -0.68 1.47 -0.63 1.49 -0.59 1.51 -0.54 1.53 -0.5 1.56 -0.45 1.59 -0.41 1.63 -0.37 1.66 -0.32 1.7 -0.28 1.75 -0.23 1.79 -0.18 1.84 -0.14 1.9 -0.09 1.95 -0.04 2.01 0 2.07 0.05 2.13 0.1 2.2 0.15 2.26 0.2 2.33 -6.08 0.62 -0.21 -2.46 -0.16 -2.39 -0.11 -2.33 -0.06 -2.28 -0 -2.22 0.05 -2.17 0.1 -2.12 0.15 -2.07 0.2 -2.02 0.25 -1.98 0.31 -1.94 0.36 -1.9 0.41 -1.86 0.46 -1.82 0.51 -1.79 0.56 -1.76 0.61 -1.72 0.66 -1.69 0.71 -1.67 0.76 -1.64 0.8 -1.62 0.85 -1.6 0.89 -1.58 0.94 -1.56 0.98 -1.54 1.03 -1.53 1.07 -1.52 1.11 -1.51 1.15 -1.51 1.2 -1.51 1.24 -1.51 1.28 -1.51 3.74 -0.67zm-3.74 0.67l1.61 -1.88 2.13 1.21 -3.74 0.67z"/>
   </g>
   <g>
    <path class="fil2" d="M185.86 271.36c14.92,3.85 29.84,7.71 44.76,11.56 46.73,-82.04 -89.33,-111.01 -114.88,-154.75 -34.81,-102.19 178.84,-77.99 45.45,6.73 36.16,16.83 150.42,-30.06 131.63,-93.25 -33.08,-55.92 -230.84,-66.3 -238.75,75.47 5.53,90.92 155.41,92.32 131.8,154.25z"/>
    <path id="1" class="fil3" d="M227.99 281.29l5.25 3.25 -3.36 1.46 -1.4 -0.36 -1.4 -0.36 -1.4 -0.36 -1.4 -0.36 -1.4 -0.36 -1.4 -0.36 -1.4 -0.36 -1.4 -0.36 -1.4 -0.36 -1.4 -0.36 -1.4 -0.36 -1.4 -0.36 -1.4 -0.36 -1.4 -0.36 -1.4 -0.36 -1.4 -0.36 -1.4 -0.36 -1.4 -0.36 -1.4 -0.36 -1.4 -0.36 -1.4 -0.36 -1.4 -0.36 -1.4 -0.36 -1.4 -0.36 -1.4 -0.36 -1.4 -0.36 -1.4 -0.36 -1.4 -0.36 -1.4 -0.36 -1.4 -0.36 -1.4 -0.36 -1.4 -0.36 1.46 -6.18 1.4 0.36 1.4 0.36 1.4 0.36 1.4 0.36 1.4 0.36 1.4 0.36 1.4 0.36 1.4 0.36 1.4 0.36 1.4 0.36 1.4 0.36 1.4 0.36 1.4 0.36 1.4 0.36 1.4 0.36 1.4 0.36 1.4 0.36 1.4 0.36 1.4 0.36 1.4 0.36 1.4 0.36 1.4 0.36 1.4 0.36 1.4 0.36 1.4 0.36 1.4 0.36 1.4 0.36 1.4 0.36 1.4 0.36 1.4 0.36 1.4 0.36 1.4 0.36 -3.36 1.46zm5.25 3.25l-1.16 2.03 -2.2 -0.57 3.36 -1.46zm-120.39 -155.31l5.76 -2.12 -0.27 -0.59 2.51 3.76 3.12 3.76 3.68 3.76 4.2 3.75 4.65 3.75 5.06 3.75 5.4 3.75 5.69 3.77 5.92 3.79 6.11 3.83 6.23 3.88 6.3 3.94 6.31 4 6.28 4.09 6.19 4.19 6.04 4.3 5.85 4.42 5.6 4.57 5.29 4.73 4.94 4.9 4.52 5.1 4.06 5.31 3.53 5.55 2.93 5.8 2.27 6.06 1.54 6.33 0.74 6.59 -0.11 6.84 -1.02 7.08 -1.97 7.32 -2.96 7.56 -3.99 7.8 -5.25 -3.25 3.72 -7.27 2.71 -6.92 1.77 -6.59 0.91 -6.28 0.1 -5.99 -0.65 -5.75 -1.35 -5.54 -2.01 -5.36 -2.63 -5.2 -3.21 -5.05 -3.75 -4.91 -4.24 -4.78 -4.68 -4.65 -5.07 -4.53 -5.4 -4.41 -5.69 -4.3 -5.91 -4.2 -6.08 -4.12 -6.2 -4.04 -6.27 -3.97 -6.28 -3.92 -6.23 -3.88 -6.14 -3.85 -5.99 -3.83 -5.79 -3.83 -5.53 -3.85 -5.23 -3.88 -4.87 -3.93 -4.47 -4 -4.01 -4.09 -3.49 -4.21 -2.91 -4.36 -0.27 -0.59zm0.27 0.59l-0.17 -0.28 -0.1 -0.31 0.27 0.59zm49.31 2.17l-2.49 5.81 -0.35 -5.62 11.36 -7.66 9.41 -7.27 7.57 -6.84 5.84 -6.38 4.22 -5.88 2.73 -5.33 1.41 -4.74 0.28 -4.16 -0.68 -3.66 -1.55 -3.3 -2.4 -3.01 -3.23 -2.7 -3.99 -2.33 -4.65 -1.91 -5.2 -1.44 -5.62 -0.95 -5.93 -0.43 -6.12 0.11 -6.19 0.65 -6.15 1.21 -5.99 1.78 -5.72 2.35 -5.33 2.92 -4.85 3.49 -4.26 4.06 -3.59 4.63 -2.84 5.22 -2 5.85 -1.07 6.53 -0.03 7.26 1.14 8.03 2.45 8.84 -5.76 2.12 -2.66 -9.59 -1.27 -8.93 0.03 -8.27 1.25 -7.6 2.36 -6.89 3.34 -6.16 4.19 -5.41 4.91 -4.68 5.49 -3.95 5.95 -3.26 6.3 -2.59 6.54 -1.95 6.68 -1.32 6.71 -0.71 6.64 -0.11 6.47 0.47 6.2 1.05 5.83 1.62 5.36 2.2 4.79 2.8 4.1 3.44 3.26 4.1 2.22 4.76 0.99 5.32 -0.38 5.73 -1.78 6.02 -3.22 6.29 -4.71 6.56 -6.28 6.87 -7.96 7.19 -9.75 7.53 -11.65 7.86 -0.35 -5.62zm-2.49 5.81l-5.31 -2.47 4.96 -3.15 0.35 5.62zm130.27 -94.49l5.2 -3.34 0.32 0.73 1.47 6.25 0.68 6.17 -0.07 6.06 -0.78 5.92 -1.44 5.76 -2.06 5.58 -2.62 5.4 -3.14 5.2 -3.61 5 -4.04 4.8 -4.43 4.59 -4.78 4.37 -5.09 4.16 -5.36 3.93 -5.59 3.7 -5.79 3.47 -5.95 3.23 -6.07 2.98 -6.15 2.72 -6.2 2.45 -6.2 2.18 -6.18 1.9 -6.11 1.61 -6.01 1.31 -5.87 1 -5.7 0.68 -5.49 0.36 -5.25 0.01 -4.98 -0.34 -4.67 -0.71 -4.34 -1.11 -3.97 -1.53 2.49 -5.81 3.25 1.25 3.72 0.95 4.15 0.63 4.53 0.31 4.86 -0.01 5.15 -0.33 5.4 -0.65 5.6 -0.95 5.75 -1.25 5.87 -1.55 5.95 -1.83 5.98 -2.1 5.98 -2.37 5.93 -2.62 5.85 -2.87 5.73 -3.11 5.56 -3.33 5.36 -3.55 5.11 -3.75 4.83 -3.95 4.51 -4.13 4.15 -4.3 3.75 -4.45 3.32 -4.6 2.85 -4.73 2.35 -4.84 1.82 -4.95 1.26 -5.05 0.68 -5.15 0.06 -5.26 -0.59 -5.37 -1.29 -5.5 0.32 0.73zm5.2 -3.34l0.2 0.34 0.11 0.38 -0.32 -0.73zm-238.31 76.94l-6.1 0.4 -0 -0.39 1.32 -13.14 2.4 -12.28 3.41 -11.43 4.36 -10.6 5.24 -9.77 6.06 -8.95 6.8 -8.15 7.47 -7.36 8.06 -6.6 8.59 -5.85 9.05 -5.13 9.44 -4.43 9.77 -3.75 10.02 -3.09 10.22 -2.46 10.35 -1.85 10.42 -1.26 10.42 -0.69 10.36 -0.14 10.24 0.39 10.05 0.9 9.8 1.38 9.49 1.86 9.12 2.31 8.68 2.75 8.18 3.16 7.62 3.57 7 3.97 6.31 4.35 5.57 4.73 4.74 5.11 3.84 5.49 -5.2 3.34 -3.31 -4.72 -4.2 -4.53 -5.05 -4.29 -5.84 -4.02 -6.57 -3.72 -7.23 -3.39 -7.82 -3.02 -8.34 -2.64 -8.79 -2.23 -9.18 -1.8 -9.5 -1.34 -9.75 -0.87 -9.94 -0.38 -10.06 0.14 -10.11 0.67 -10.1 1.22 -10.02 1.79 -9.87 2.38 -9.66 2.98 -9.38 3.6 -9.04 4.24 -8.63 4.89 -8.16 5.56 -7.63 6.24 -7.05 6.95 -6.4 7.67 -5.69 8.42 -4.93 9.19 -4.11 9.99 -3.22 10.81 -2.27 11.67 -1.26 12.56 -0 -0.39zm-6.1 0.4l-0.01 -0.19 0.01 -0.19 0 0.39zm135.58 150.96l-1.46 6.18 -2.11 -4.27 1.58 -5.19 0.68 -4.77 -0.13 -4.43 -0.87 -4.17 -1.58 -3.99 -2.27 -3.88 -2.93 -3.78 -3.56 -3.7 -4.15 -3.63 -4.67 -3.57 -5.14 -3.52 -5.54 -3.49 -5.88 -3.48 -6.17 -3.5 -6.39 -3.54 -6.55 -3.61 -6.66 -3.71 -6.7 -3.83 -6.69 -3.98 -6.61 -4.16 -6.48 -4.37 -6.29 -4.61 -6.05 -4.88 -5.74 -5.18 -5.37 -5.52 -4.94 -5.88 -4.45 -6.28 -3.89 -6.71 -3.26 -7.16 -2.56 -7.63 -1.8 -8.11 -0.97 -8.61 6.1 -0.4 0.89 7.93 1.64 7.43 2.34 6.97 2.98 6.56 3.58 6.18 4.13 5.83 4.63 5.51 5.07 5.21 5.47 4.93 5.8 4.68 6.08 4.45 6.31 4.25 6.47 4.07 6.58 3.91 6.62 3.79 6.62 3.68 6.55 3.61 6.42 3.56 6.24 3.54 6 3.55 5.71 3.6 5.36 3.67 4.96 3.79 4.5 3.94 3.98 4.14 3.39 4.38 2.72 4.67 1.96 4.98 1.1 5.3 0.16 5.58 -0.83 5.84 -1.85 6.08 -2.11 -4.27zm-1.46 6.18l-3.4 -0.88 1.29 -3.39 2.11 4.27z"/>
   </g>
   <g>
    <path class="fil4" d="M85.8 366.44c-0.17,7.71 2.37,15.09 8.64,23.23 -15.17,-8.29 -29.66,-19.7 -39.77,-31.87 11.35,7.21 21.8,7.25 31.13,8.64z"/>
    <path id="1" class="fil5" d="M93.02 392.49l2.83 -5.64 -3.8 4.81 -0.61 -0.8 -0.58 -0.8 -0.56 -0.79 -0.54 -0.79 -0.52 -0.79 -0.5 -0.79 -0.48 -0.79 -0.46 -0.79 -0.44 -0.79 -0.42 -0.79 -0.4 -0.79 -0.38 -0.79 -0.36 -0.79 -0.34 -0.78 -0.32 -0.79 -0.3 -0.79 -0.28 -0.79 -0.26 -0.79 -0.24 -0.79 -0.22 -0.79 -0.2 -0.79 -0.18 -0.79 -0.16 -0.79 -0.14 -0.79 -0.12 -0.79 -0.1 -0.79 -0.08 -0.79 -0.06 -0.8 -0.04 -0.79 -0.03 -0.79 -0.01 -0.8 0.01 -0.8 6.11 0.15 -0.01 0.65 0.01 0.65 0.02 0.64 0.04 0.64 0.05 0.64 0.07 0.64 0.08 0.64 0.1 0.64 0.11 0.64 0.13 0.64 0.14 0.64 0.16 0.64 0.18 0.64 0.19 0.64 0.21 0.64 0.23 0.65 0.25 0.65 0.26 0.65 0.28 0.66 0.3 0.66 0.32 0.66 0.34 0.67 0.36 0.67 0.38 0.68 0.4 0.68 0.42 0.69 0.44 0.69 0.46 0.7 0.48 0.7 0.5 0.71 0.52 0.72 0.55 0.72 -3.8 4.81zm-36.76 -37.4l-3.18 5.43 3.9 -4.8 0.93 1.1 0.95 1.1 0.98 1.09 1 1.09 1.03 1.09 1.05 1.08 1.07 1.07 1.09 1.07 1.11 1.06 1.13 1.05 1.15 1.05 1.17 1.04 1.19 1.03 1.21 1.02 1.22 1.01 1.24 1 1.25 0.99 1.27 0.98 1.28 0.96 1.29 0.95 1.3 0.94 1.32 0.93 1.33 0.91 1.34 0.9 1.35 0.88 1.35 0.87 1.36 0.85 1.37 0.84 1.38 0.82 1.38 0.8 1.39 0.79 1.39 0.77 -2.83 5.64 -1.45 -0.8 -1.44 -0.82 -1.44 -0.84 -1.43 -0.86 -1.43 -0.87 -1.42 -0.89 -1.41 -0.9 -1.4 -0.92 -1.39 -0.93 -1.38 -0.95 -1.37 -0.96 -1.36 -0.98 -1.35 -0.99 -1.33 -1.01 -1.32 -1.02 -1.31 -1.03 -1.29 -1.04 -1.28 -1.05 -1.26 -1.07 -1.24 -1.07 -1.23 -1.09 -1.21 -1.1 -1.19 -1.1 -1.17 -1.11 -1.15 -1.12 -1.13 -1.13 -1.11 -1.14 -1.09 -1.15 -1.06 -1.15 -1.04 -1.16 -1.01 -1.17 -0.99 -1.17 3.9 -4.8zm32.59 11.43l-6.11 -0.15 2.62 3.23 -0.85 -0.12 -0.86 -0.12 -0.88 -0.11 -0.89 -0.11 -0.9 -0.11 -0.91 -0.11 -0.92 -0.11 -0.93 -0.12 -0.94 -0.12 -0.96 -0.13 -0.97 -0.14 -0.97 -0.15 -0.98 -0.16 -0.99 -0.17 -1.01 -0.19 -1.01 -0.2 -1.02 -0.22 -1.03 -0.24 -1.04 -0.26 -1.05 -0.29 -1.06 -0.31 -1.07 -0.34 -1.07 -0.37 -1.08 -0.4 -1.09 -0.43 -1.1 -0.46 -1.1 -0.5 -1.11 -0.53 -1.12 -0.58 -1.12 -0.61 -1.12 -0.65 -1.13 -0.7 3.18 -5.43 1 0.61 0.99 0.58 0.98 0.54 0.98 0.5 0.97 0.47 0.97 0.44 0.96 0.41 0.96 0.38 0.95 0.35 0.95 0.33 0.95 0.3 0.94 0.28 0.94 0.26 0.94 0.24 0.93 0.22 0.93 0.2 0.93 0.19 0.93 0.17 0.92 0.16 0.92 0.15 0.92 0.14 0.92 0.13 0.91 0.12 0.91 0.12 0.91 0.11 0.91 0.11 0.91 0.11 0.91 0.11 0.91 0.11 0.91 0.12 0.91 0.12 0.9 0.13 2.62 3.23zm-2.62 -3.23l2.69 0.4 -0.06 2.83 -2.62 -3.23z"/>
   </g>
   <g>
    <path class="fil6" d="M146.62 303.12l42.2 16.47c-23.94,15.53 -77.56,34.6 -126.18,21.12 -41.94,-14.38 -67.87,-61.08 -36.35,-101.56 25.52,-24.16 70.46,-3.49 72.81,21.37 1.57,26.6 -24.47,36.85 -42.66,30.34 16.06,27.83 62.65,31.13 90.18,12.26z"/>
    <path id="1" class="fil5" d="M187.75 322.56l-42.2 -16.47 2.14 -5.96 42.2 16.47 0.55 5.68 -2.69 0.28zm2.14 -5.96l5.81 2.27 -5.26 3.41 -0.55 -5.68zm-128.2 27.12l1.91 -6.04 -0.17 -0.05 4.46 1.14 4.48 0.96 4.5 0.79 4.52 0.62 4.52 0.46 4.53 0.31 4.52 0.16 4.51 0.02 4.49 -0.12 4.47 -0.25 4.44 -0.37 4.4 -0.48 4.35 -0.59 4.3 -0.7 4.25 -0.79 4.18 -0.88 4.11 -0.97 4.04 -1.05 3.95 -1.12 3.86 -1.18 3.77 -1.24 3.66 -1.29 3.55 -1.33 3.44 -1.37 3.31 -1.4 3.18 -1.42 3.05 -1.44 2.9 -1.45 2.75 -1.46 2.6 -1.45 2.43 -1.44 2.26 -1.42 3.23 5.4 -2.4 1.51 -2.56 1.52 -2.72 1.52 -2.88 1.52 -3.02 1.51 -3.16 1.5 -3.3 1.48 -3.43 1.45 -3.55 1.42 -3.67 1.38 -3.78 1.33 -3.88 1.28 -3.98 1.22 -4.07 1.15 -4.16 1.08 -4.24 1 -4.32 0.91 -4.38 0.82 -4.45 0.72 -4.5 0.61 -4.55 0.5 -4.6 0.38 -4.63 0.25 -4.66 0.12 -4.69 -0.02 -4.71 -0.17 -4.72 -0.32 -4.73 -0.48 -4.73 -0.65 -4.72 -0.83 -4.71 -1.01 -4.68 -1.2 -0.17 -0.05zm0.17 0.05l-0.08 -0.02 -0.09 -0.03 0.17 0.05zm-37.62 -106.99l4.11 4.71 0.32 -0.35 -2.67 3.66 -2.35 3.67 -2.04 3.68 -1.73 3.68 -1.44 3.68 -1.15 3.67 -0.87 3.66 -0.61 3.64 -0.35 3.62 -0.09 3.59 0.15 3.56 0.39 3.53 0.62 3.48 0.85 3.44 1.07 3.38 1.28 3.32 1.49 3.26 1.69 3.19 1.88 3.1 2.07 3.02 2.25 2.92 2.42 2.82 2.58 2.71 2.74 2.59 2.89 2.47 3.04 2.34 3.18 2.2 3.3 2.05 3.43 1.9 3.54 1.73 3.65 1.57 3.75 1.39 -1.91 6.04 -4.02 -1.49 -3.92 -1.68 -3.81 -1.87 -3.69 -2.04 -3.56 -2.21 -3.43 -2.37 -3.28 -2.52 -3.13 -2.67 -2.98 -2.81 -2.81 -2.95 -2.64 -3.07 -2.46 -3.2 -2.27 -3.31 -2.07 -3.42 -1.86 -3.52 -1.65 -3.61 -1.42 -3.7 -1.19 -3.78 -0.95 -3.85 -0.7 -3.91 -0.44 -3.97 -0.17 -4.01 0.11 -4.05 0.39 -4.08 0.68 -4.1 0.98 -4.1 1.29 -4.1 1.6 -4.09 1.92 -4.07 2.24 -4.05 2.57 -4.01 2.9 -3.97 0.32 -0.35zm-0.32 0.35l0.14 -0.18 0.17 -0.17 -0.32 0.35zm78.23 23.19l-6.1 0.39 0.01 0.12 -0.29 -1.98 -0.5 -1.97 -0.71 -1.96 -0.9 -1.94 -1.1 -1.92 -1.28 -1.88 -1.46 -1.84 -1.63 -1.78 -1.79 -1.72 -1.94 -1.64 -2.07 -1.56 -2.2 -1.46 -2.31 -1.36 -2.41 -1.25 -2.5 -1.12 -2.58 -1 -2.64 -0.86 -2.69 -0.72 -2.73 -0.57 -2.76 -0.41 -2.77 -0.25 -2.78 -0.08 -2.77 0.1 -2.75 0.28 -2.72 0.47 -2.68 0.66 -2.63 0.86 -2.58 1.07 -2.51 1.28 -2.43 1.5 -2.35 1.73 -2.26 1.97 -4.11 -4.71 2.64 -2.3 2.75 -2.03 2.85 -1.76 2.94 -1.5 3 -1.25 3.06 -1 3.1 -0.77 3.13 -0.54 3.15 -0.32 3.15 -0.11 3.14 0.09 3.13 0.28 3.1 0.46 3.06 0.64 3.01 0.8 2.95 0.96 2.87 1.11 2.79 1.26 2.7 1.4 2.6 1.53 2.48 1.65 2.36 1.77 2.22 1.88 2.07 1.99 1.91 2.09 1.74 2.19 1.56 2.28 1.36 2.37 1.14 2.46 0.91 2.53 0.66 2.6 0.39 2.66 0.01 0.12zm-0.01 -0.12l0 0.05 0 0.06 -0.01 -0.12zm-43.08 29.01l-5.23 3.28 3.61 -4.65 1.56 0.51 1.6 0.42 1.64 0.33 1.67 0.25 1.69 0.15 1.71 0.06 1.71 -0.02 1.71 -0.11 1.71 -0.2 1.7 -0.29 1.68 -0.38 1.65 -0.47 1.62 -0.56 1.58 -0.64 1.53 -0.73 1.48 -0.82 1.42 -0.9 1.36 -0.98 1.29 -1.07 1.22 -1.15 1.14 -1.23 1.05 -1.31 0.97 -1.39 0.88 -1.48 0.78 -1.56 0.68 -1.65 0.57 -1.74 0.46 -1.84 0.34 -1.93 0.21 -2.03 0.08 -2.13 -0.06 -2.24 6.1 -0.39 0.07 2.66 -0.1 2.57 -0.26 2.48 -0.42 2.39 -0.57 2.29 -0.72 2.19 -0.86 2.09 -0.99 1.98 -1.11 1.88 -1.22 1.77 -1.33 1.66 -1.43 1.54 -1.52 1.43 -1.6 1.32 -1.67 1.21 -1.74 1.1 -1.8 0.99 -1.85 0.88 -1.89 0.77 -1.93 0.66 -1.96 0.56 -1.98 0.45 -2 0.35 -2.01 0.24 -2.02 0.13 -2.02 0.03 -2.01 -0.08 -2 -0.18 -1.99 -0.29 -1.96 -0.4 -1.93 -0.51 -1.89 -0.62 3.61 -4.65zm-5.23 3.28l-4.32 -7.49 7.93 2.84 -3.61 4.65zm93.87 7.64l-2.14 5.96 2.75 -0.32 -2.77 1.79 -2.87 1.65 -2.96 1.51 -3.05 1.37 -3.12 1.23 -3.18 1.09 -3.24 0.95 -3.29 0.81 -3.32 0.67 -3.35 0.53 -3.37 0.4 -3.39 0.25 -3.39 0.12 -3.38 -0.03 -3.37 -0.17 -3.35 -0.31 -3.32 -0.45 -3.27 -0.59 -3.23 -0.74 -3.17 -0.88 -3.1 -1.03 -3.03 -1.18 -2.94 -1.33 -2.85 -1.48 -2.74 -1.64 -2.63 -1.79 -2.51 -1.95 -2.37 -2.1 -2.23 -2.26 -2.07 -2.42 -1.9 -2.58 -1.72 -2.74 5.23 -3.28 1.47 2.34 1.63 2.21 1.78 2.08 1.93 1.96 2.06 1.83 2.2 1.7 2.32 1.58 2.44 1.45 2.55 1.33 2.65 1.2 2.74 1.07 2.82 0.94 2.89 0.81 2.96 0.68 3.01 0.55 3.06 0.42 3.09 0.29 3.12 0.15 3.14 0.02 3.15 -0.11 3.14 -0.24 3.13 -0.37 3.11 -0.5 3.08 -0.62 3.04 -0.75 2.99 -0.88 2.93 -1 2.86 -1.13 2.79 -1.25 2.7 -1.37 2.6 -1.5 2.5 -1.62 2.75 -0.32zm-2.75 0.32l1.3 -0.89 1.45 0.57 -2.75 0.32z"/>
   </g>
   <g>
    <path class="fil7" d="M46.91 69.73c-43.15,42.38 -49.71,95.42 -39.86,132.47 9.77,26.77 54.83,26.9 63.26,-18.44 -47.18,-1.51 -50.88,-59.43 -23.41,-114.03z"/>
    <path id="1" class="fil5" d="M9.91 201.07l-5.71 2.26 -0.09 -0.28 -0.9 -3.62 -0.8 -3.71 -0.69 -3.8 -0.58 -3.87 -0.47 -3.95 -0.35 -4.02 -0.23 -4.08 -0.1 -4.14 0.03 -4.2 0.16 -4.25 0.3 -4.29 0.44 -4.33 0.58 -4.37 0.73 -4.4 0.88 -4.42 1.04 -4.44 1.19 -4.46 1.36 -4.47 1.52 -4.48 1.69 -4.48 1.87 -4.47 2.04 -4.46 2.23 -4.44 2.41 -4.43 2.6 -4.4 2.79 -4.37 2.99 -4.33 3.18 -4.29 3.39 -4.25 3.59 -4.2 3.8 -4.14 4.01 -4.08 4.19 4.63 -3.86 3.93 -3.66 3.98 -3.45 4.03 -3.25 4.08 -3.05 4.11 -2.86 4.15 -2.67 4.18 -2.48 4.21 -2.3 4.23 -2.13 4.25 -1.95 4.26 -1.78 4.27 -1.61 4.27 -1.45 4.27 -1.29 4.26 -1.14 4.25 -0.99 4.23 -0.84 4.21 -0.69 4.19 -0.55 4.16 -0.42 4.13 -0.28 4.08 -0.15 4.04 -0.03 3.99 0.1 3.94 0.21 3.87 0.33 3.81 0.44 3.74 0.55 3.67 0.65 3.59 0.75 3.51 0.85 3.42 -0.09 -0.28zm-5.71 2.26l-0.05 -0.14 -0.04 -0.14 0.09 0.28zm66.02 -16.39l0.18 -6.36 2.91 3.79 -0.94 4.31 -1.16 4.06 -1.36 3.8 -1.55 3.55 -1.73 3.29 -1.9 3.04 -2.05 2.79 -2.19 2.54 -2.32 2.29 -2.43 2.04 -2.52 1.79 -2.6 1.54 -2.66 1.3 -2.71 1.06 -2.75 0.82 -2.77 0.58 -2.77 0.35 -2.77 0.13 -2.75 -0.1 -2.71 -0.32 -2.66 -0.53 -2.6 -0.75 -2.52 -0.96 -2.43 -1.17 -2.32 -1.38 -2.2 -1.58 -2.06 -1.78 -1.91 -1.98 -1.74 -2.17 -1.55 -2.36 -1.35 -2.54 -1.13 -2.71 5.71 -2.26 0.9 2.15 1.07 2 1.23 1.86 1.38 1.71 1.51 1.57 1.64 1.42 1.76 1.26 1.87 1.11 1.97 0.95 2.05 0.78 2.12 0.61 2.18 0.44 2.23 0.26 2.27 0.08 2.29 -0.11 2.3 -0.29 2.3 -0.49 2.29 -0.68 2.26 -0.88 2.22 -1.08 2.17 -1.29 2.12 -1.5 2.04 -1.72 1.96 -1.94 1.87 -2.16 1.76 -2.39 1.64 -2.63 1.51 -2.88 1.37 -3.13 1.21 -3.39 1.04 -3.65 0.85 -3.92 2.91 3.79zm0.18 -6.36l3.59 0.11 -0.68 3.67 -2.91 -3.79zm-21.4 -108.53l-4.19 -4.63 4.8 3.8 -2.44 5.04 -2.26 5.04 -2.07 5.04 -1.89 5.03 -1.7 5 -1.51 4.96 -1.31 4.91 -1.12 4.84 -0.92 4.77 -0.72 4.68 -0.52 4.59 -0.32 4.48 -0.11 4.35 0.09 4.22 0.3 4.08 0.5 3.92 0.71 3.75 0.91 3.57 1.12 3.39 1.32 3.19 1.52 2.98 1.72 2.77 1.93 2.55 2.14 2.33 2.35 2.11 2.57 1.88 2.79 1.64 3.03 1.39 3.28 1.14 3.53 0.87 3.8 0.59 4.06 0.29 -0.18 6.36 -4.53 -0.32 -4.29 -0.66 -4.05 -1 -3.81 -1.32 -3.57 -1.64 -3.32 -1.95 -3.06 -2.24 -2.81 -2.52 -2.54 -2.78 -2.28 -3.02 -2.02 -3.25 -1.76 -3.45 -1.51 -3.65 -1.26 -3.83 -1.02 -3.99 -0.78 -4.15 -0.55 -4.29 -0.32 -4.42 -0.1 -4.55 0.12 -4.66 0.34 -4.76 0.55 -4.85 0.76 -4.94 0.97 -5.01 1.17 -5.07 1.37 -5.12 1.57 -5.16 1.76 -5.19 1.96 -5.22 2.15 -5.23 2.34 -5.23 2.53 -5.22 4.8 3.8z"/>
   </g>
   <g>
    <path class="fil8" d="M305.27 41.19c9.63,27.95 3.3,48.36 -7.3,62.73 25.11,8.89 55.9,1.72 44.98,-26.17 -8.42,-13.73 -15.2,-22.43 -37.67,-36.56z"/>
    <path id="1" class="fil5" d="M298.94 100.91l-1.96 6.03 -1.44 -4.95 0.93 -1.3 0.91 -1.33 0.88 -1.37 0.85 -1.4 0.82 -1.43 0.78 -1.47 0.75 -1.5 0.71 -1.53 0.67 -1.57 0.62 -1.6 0.58 -1.64 0.53 -1.67 0.48 -1.71 0.44 -1.75 0.38 -1.78 0.33 -1.82 0.27 -1.86 0.21 -1.9 0.16 -1.94 0.1 -1.98 0.03 -2.02 -0.04 -2.06 -0.11 -2.11 -0.18 -2.15 -0.25 -2.19 -0.33 -2.24 -0.4 -2.28 -0.48 -2.33 -0.57 -2.37 -0.65 -2.42 -0.74 -2.46 -0.83 -2.52 5.75 -2.15 0.88 2.68 0.79 2.64 0.7 2.6 0.61 2.56 0.52 2.52 0.44 2.48 0.35 2.44 0.27 2.4 0.19 2.36 0.12 2.32 0.04 2.28 -0.03 2.24 -0.1 2.2 -0.17 2.16 -0.24 2.12 -0.3 2.08 -0.37 2.04 -0.43 1.99 -0.49 1.95 -0.54 1.91 -0.6 1.87 -0.65 1.83 -0.7 1.79 -0.74 1.75 -0.79 1.71 -0.83 1.67 -0.87 1.63 -0.9 1.59 -0.94 1.55 -0.97 1.51 -1 1.47 -1.03 1.43 -1.44 -4.95zm-1.96 6.03l-4.04 -1.43 2.6 -3.52 1.44 4.95zm43.39 -27.47l5.15 -3.42 0.25 0.51 0.98 2.76 0.73 2.67 0.49 2.58 0.25 2.5 0.01 2.4 -0.22 2.31 -0.45 2.2 -0.68 2.08 -0.89 1.95 -1.09 1.81 -1.27 1.66 -1.44 1.51 -1.58 1.36 -1.71 1.21 -1.82 1.07 -1.93 0.93 -2.02 0.8 -2.1 0.68 -2.18 0.56 -2.25 0.44 -2.31 0.33 -2.37 0.21 -2.41 0.11 -2.45 -0 -2.48 -0.11 -2.51 -0.21 -2.52 -0.32 -2.53 -0.42 -2.53 -0.52 -2.52 -0.62 -2.5 -0.72 -2.48 -0.82 1.96 -6.03 2.26 0.75 2.28 0.66 2.3 0.57 2.3 0.48 2.3 0.38 2.29 0.29 2.27 0.19 2.24 0.1 2.19 0 2.14 -0.09 2.08 -0.19 2.01 -0.29 1.93 -0.38 1.84 -0.47 1.74 -0.56 1.63 -0.65 1.52 -0.74 1.39 -0.82 1.26 -0.9 1.13 -0.97 0.99 -1.04 0.86 -1.11 0.72 -1.19 0.59 -1.28 0.45 -1.38 0.31 -1.49 0.16 -1.61 -0.01 -1.75 -0.19 -1.89 -0.39 -2.04 -0.6 -2.19 -0.83 -2.35 0.25 0.51zm5.15 -3.42l0.15 0.24 0.11 0.27 -0.25 -0.51zm-37.37 -35.92l-5.75 2.15 4.45 -3.8 2.09 1.32 2 1.3 1.91 1.27 1.83 1.24 1.76 1.22 1.68 1.2 1.61 1.18 1.54 1.17 1.48 1.15 1.42 1.14 1.36 1.13 1.3 1.12 1.25 1.11 1.2 1.11 1.15 1.11 1.1 1.1 1.06 1.1 1.03 1.11 0.99 1.11 0.96 1.11 0.93 1.12 0.9 1.13 0.87 1.13 0.85 1.15 0.83 1.16 0.82 1.17 0.81 1.19 0.8 1.2 0.79 1.22 0.79 1.24 0.79 1.26 0.8 1.29 -5.15 3.42 -0.78 -1.26 -0.77 -1.23 -0.76 -1.2 -0.76 -1.17 -0.76 -1.14 -0.76 -1.12 -0.77 -1.1 -0.78 -1.08 -0.79 -1.06 -0.81 -1.05 -0.83 -1.04 -0.85 -1.03 -0.88 -1.02 -0.91 -1.02 -0.94 -1.02 -0.98 -1.02 -1.02 -1.02 -1.06 -1.02 -1.11 -1.03 -1.17 -1.04 -1.22 -1.05 -1.28 -1.06 -1.34 -1.08 -1.4 -1.1 -1.47 -1.11 -1.54 -1.14 -1.62 -1.15 -1.69 -1.18 -1.78 -1.21 -1.86 -1.23 -1.95 -1.26 -2.04 -1.29 4.45 -3.8zm-5.75 2.15l-2.9 -8.42 7.35 4.62 -4.45 3.8z"/>
   </g>
   <g>
    <path class="fil9" d="M384.45 207.98c3.78,42.77 -13.2,106.52 -45.08,106.75 -18.65,-2.96 -39.23,-17.29 -40.79,-46.67 39.33,18.49 70.96,-15.03 85.87,-60.08z"/>
    <path id="1" class="fil5" d="M338.91 317.88l0.91 -6.29 -0.48 -0.04 2.58 -0.18 2.5 -0.49 2.43 -0.8 2.37 -1.09 2.32 -1.38 2.26 -1.67 2.21 -1.94 2.14 -2.21 2.07 -2.47 2 -2.71 1.92 -2.93 1.84 -3.14 1.75 -3.34 1.66 -3.52 1.56 -3.68 1.47 -3.83 1.37 -3.96 1.27 -4.07 1.17 -4.17 1.06 -4.25 0.95 -4.31 0.85 -4.36 0.74 -4.4 0.63 -4.41 0.52 -4.41 0.41 -4.4 0.29 -4.37 0.18 -4.32 0.06 -4.25 -0.05 -4.18 -0.17 -4.08 -0.29 -3.96 6.08 -0.58 0.3 4.17 0.18 4.27 0.06 4.36 -0.07 4.43 -0.19 4.49 -0.3 4.53 -0.42 4.56 -0.54 4.58 -0.65 4.58 -0.77 4.56 -0.88 4.53 -0.99 4.48 -1.11 4.42 -1.22 4.35 -1.33 4.26 -1.44 4.16 -1.55 4.03 -1.66 3.9 -1.77 3.75 -1.88 3.59 -1.99 3.41 -2.11 3.22 -2.22 3.01 -2.34 2.79 -2.47 2.54 -2.59 2.28 -2.72 2 -2.85 1.7 -2.98 1.37 -3.1 1.01 -3.21 0.63 -3.31 0.23 -0.48 -0.04zm0.48 0.04l-0.24 0 -0.24 -0.04 0.48 0.04zm-39.56 -52.75l-2.51 5.8 4.3 -3.07 0.19 2.57 0.29 2.48 0.39 2.39 0.48 2.3 0.57 2.22 0.66 2.13 0.74 2.05 0.82 1.97 0.89 1.89 0.96 1.81 1.03 1.74 1.09 1.66 1.15 1.59 1.21 1.51 1.26 1.44 1.32 1.37 1.36 1.3 1.41 1.23 1.45 1.16 1.49 1.09 1.52 1.02 1.55 0.95 1.58 0.88 1.6 0.81 1.62 0.75 1.64 0.68 1.65 0.61 1.66 0.55 1.66 0.48 1.66 0.42 1.66 0.36 1.65 0.29 -0.91 6.29 -1.86 -0.33 -1.86 -0.4 -1.87 -0.47 -1.87 -0.54 -1.86 -0.62 -1.86 -0.69 -1.84 -0.77 -1.83 -0.84 -1.81 -0.92 -1.79 -1 -1.76 -1.08 -1.73 -1.16 -1.69 -1.24 -1.65 -1.32 -1.61 -1.4 -1.56 -1.49 -1.51 -1.57 -1.46 -1.65 -1.39 -1.74 -1.33 -1.82 -1.26 -1.91 -1.18 -2 -1.1 -2.08 -1.02 -2.17 -0.93 -2.25 -0.84 -2.34 -0.75 -2.43 -0.65 -2.51 -0.54 -2.6 -0.44 -2.68 -0.33 -2.77 -0.21 -2.85 4.3 -3.07zm-4.3 3.07l-0.28 -5.23 4.58 2.15 -4.3 3.07zm91.97 -60.54l-6.08 0.58 5.93 0.75 -1.47 4.27 -1.57 4.19 -1.67 4.11 -1.77 4.03 -1.86 3.93 -1.96 3.83 -2.05 3.72 -2.14 3.6 -2.23 3.48 -2.32 3.34 -2.41 3.2 -2.5 3.06 -2.58 2.9 -2.67 2.74 -2.76 2.57 -2.84 2.39 -2.93 2.2 -3.01 2.01 -3.09 1.8 -3.17 1.58 -3.25 1.36 -3.32 1.13 -3.4 0.88 -3.46 0.63 -3.52 0.37 -3.59 0.1 -3.64 -0.18 -3.69 -0.47 -3.73 -0.76 -3.77 -1.05 -3.81 -1.35 -3.84 -1.66 2.51 -5.8 3.49 1.51 3.43 1.22 3.37 0.94 3.31 0.67 3.25 0.41 3.19 0.16 3.13 -0.08 3.08 -0.32 3.03 -0.55 2.97 -0.77 2.92 -0.99 2.87 -1.2 2.82 -1.41 2.76 -1.61 2.71 -1.81 2.65 -2 2.59 -2.18 2.53 -2.36 2.47 -2.53 2.4 -2.7 2.33 -2.85 2.26 -3.01 2.19 -3.15 2.11 -3.29 2.03 -3.42 1.95 -3.54 1.87 -3.65 1.78 -3.76 1.69 -3.86 1.6 -3.95 1.51 -4.03 1.42 -4.11 5.93 0.75z"/>
   </g>
   <g>
    <path class="fil4" d="M162.78 166.71l37.49 24.47c72.49,-30.72 131.94,8.94 49.43,68.45 59.58,3.2 139.18,-45.93 131.67,-97.4 -28.71,-57.47 -141.56,-53.53 -218.59,4.48z"/>
    <path id="1" class="fil5" d="M198.65 193.87l-37.49 -24.47 3.24 -5.39 37.49 24.47 -0.47 5.64 -2.77 -0.25zm2.77 0.25l-1.45 0.61 -1.33 -0.87 2.77 0.25zm48.43 62.32l-0.31 6.36 -1.59 -5.8 7.22 -5.44 6.4 -5.3 5.61 -5.15 4.84 -4.98 4.09 -4.8 3.37 -4.6 2.68 -4.38 2.02 -4.15 1.39 -3.9 0.81 -3.63 0.27 -3.36 -0.23 -3.11 -0.69 -2.88 -1.13 -2.67 -1.57 -2.49 -2.02 -2.31 -2.46 -2.13 -2.9 -1.92 -3.32 -1.7 -3.73 -1.45 -4.11 -1.18 -4.47 -0.89 -4.8 -0.59 -5.1 -0.28 -5.38 0.05 -5.63 0.38 -5.86 0.73 -6.06 1.09 -6.24 1.46 -6.39 1.84 -6.52 2.23 -6.62 2.62 -2.31 -5.9 6.89 -2.73 6.79 -2.32 6.67 -1.92 6.53 -1.53 6.36 -1.15 6.18 -0.77 5.97 -0.41 5.74 -0.05 5.49 0.3 5.21 0.65 4.92 0.99 4.6 1.32 4.26 1.66 3.9 1.99 3.51 2.33 3.09 2.67 2.62 3.01 2.11 3.35 1.55 3.66 0.94 3.93 0.31 4.15 -0.34 4.33 -0.99 4.48 -1.65 4.62 -2.31 4.74 -2.98 4.87 -3.67 5 -4.37 5.13 -5.1 5.25 -5.85 5.37 -6.63 5.49 -7.43 5.6 -1.59 -5.8zm-0.31 6.36l-8.95 -0.48 7.37 -5.31 1.59 5.8zm129.11 -99.11l5.42 -2.94 0.31 0.99 0.48 5.15 -0.04 5.13 -0.54 5.08 -1.02 5.02 -1.47 4.94 -1.9 4.85 -2.3 4.76 -2.68 4.66 -3.04 4.55 -3.37 4.43 -3.69 4.31 -3.98 4.18 -4.25 4.04 -4.5 3.9 -4.74 3.75 -4.95 3.59 -5.15 3.42 -5.32 3.24 -5.48 3.06 -5.62 2.87 -5.74 2.67 -5.84 2.46 -5.92 2.24 -5.98 2.01 -6.02 1.77 -6.04 1.53 -6.05 1.27 -6.04 1.01 -6.01 0.73 -5.96 0.45 -5.89 0.15 -5.8 -0.15 0.31 -6.36 5.48 0.14 5.59 -0.15 5.68 -0.43 5.74 -0.7 5.79 -0.97 5.81 -1.22 5.82 -1.47 5.8 -1.71 5.77 -1.94 5.71 -2.16 5.63 -2.37 5.54 -2.57 5.42 -2.77 5.28 -2.95 5.13 -3.12 4.95 -3.28 4.75 -3.44 4.53 -3.58 4.29 -3.71 4.03 -3.83 3.76 -3.95 3.46 -4.04 3.15 -4.13 2.81 -4.21 2.46 -4.27 2.09 -4.32 1.71 -4.37 1.31 -4.4 0.9 -4.42 0.48 -4.44 0.04 -4.46 -0.42 -4.48 0.31 0.99zm5.42 -2.94l0.24 0.47 0.08 0.52 -0.31 -0.99zm-219.68 3.25l-3.24 5.39 -0.17 -5.28 7.43 -5.35 7.61 -5.03 7.78 -4.7 7.92 -4.38 8.05 -4.05 8.14 -3.72 8.22 -3.39 8.28 -3.06 8.32 -2.73 8.33 -2.4 8.32 -2.06 8.29 -1.73 8.24 -1.39 8.17 -1.05 8.07 -0.71 7.96 -0.37 7.82 -0.03 7.67 0.32 7.49 0.67 7.29 1.02 7.06 1.37 6.82 1.73 6.56 2.09 6.27 2.45 5.96 2.82 5.63 3.19 5.28 3.57 4.89 3.95 4.49 4.33 4.05 4.72 3.59 5.11 3.09 5.49 -5.42 2.94 -2.78 -4.93 -3.23 -4.59 -3.66 -4.26 -4.08 -3.94 -4.48 -3.62 -4.86 -3.29 -5.23 -2.96 -5.58 -2.64 -5.9 -2.31 -6.21 -1.97 -6.49 -1.64 -6.75 -1.31 -6.99 -0.97 -7.2 -0.64 -7.39 -0.3 -7.56 0.03 -7.71 0.36 -7.84 0.69 -7.94 1.02 -8.02 1.35 -8.07 1.68 -8.11 2.01 -8.12 2.34 -8.11 2.66 -8.07 2.99 -8.02 3.31 -7.94 3.63 -7.84 3.95 -7.72 4.26 -7.57 4.58 -7.41 4.89 -7.22 5.21 -0.17 -5.28zm-3.24 5.39l-3.84 -2.51 3.67 -2.77 0.17 5.28z"/>
   </g>
   <g>
    <path class="fil6" d="M185.86 271.36c14.92,3.85 29.84,7.71 44.76,11.56 46.73,-82.04 -89.33,-111.01 -114.88,-154.75 -34.81,-102.19 178.84,-77.99 45.45,6.73 36.16,16.83 150.42,-30.06 131.63,-93.25 -33.08,-55.92 -230.84,-66.3 -238.75,75.47 5.53,90.92 155.41,92.32 131.8,154.25z"/>
    <path id="1" class="fil5" d="M227.99 281.29l5.25 3.25 -3.36 1.46 -1.4 -0.36 -1.4 -0.36 -1.4 -0.36 -1.4 -0.36 -1.4 -0.36 -1.4 -0.36 -1.4 -0.36 -1.4 -0.36 -1.4 -0.36 -1.4 -0.36 -1.4 -0.36 -1.4 -0.36 -1.4 -0.36 -1.4 -0.36 -1.4 -0.36 -1.4 -0.36 -1.4 -0.36 -1.4 -0.36 -1.4 -0.36 -1.4 -0.36 -1.4 -0.36 -1.4 -0.36 -1.4 -0.36 -1.4 -0.36 -1.4 -0.36 -1.4 -0.36 -1.4 -0.36 -1.4 -0.36 -1.4 -0.36 -1.4 -0.36 -1.4 -0.36 -1.4 -0.36 1.46 -6.18 1.4 0.36 1.4 0.36 1.4 0.36 1.4 0.36 1.4 0.36 1.4 0.36 1.4 0.36 1.4 0.36 1.4 0.36 1.4 0.36 1.4 0.36 1.4 0.36 1.4 0.36 1.4 0.36 1.4 0.36 1.4 0.36 1.4 0.36 1.4 0.36 1.4 0.36 1.4 0.36 1.4 0.36 1.4 0.36 1.4 0.36 1.4 0.36 1.4 0.36 1.4 0.36 1.4 0.36 1.4 0.36 1.4 0.36 1.4 0.36 1.4 0.36 1.4 0.36 -3.36 1.46zm5.25 3.25l-1.16 2.03 -2.2 -0.57 3.36 -1.46zm-120.39 -155.31l5.76 -2.12 -0.27 -0.59 2.51 3.76 3.12 3.76 3.68 3.76 4.2 3.75 4.65 3.75 5.06 3.75 5.4 3.75 5.69 3.77 5.92 3.79 6.11 3.83 6.23 3.88 6.3 3.94 6.31 4 6.28 4.09 6.19 4.19 6.04 4.3 5.85 4.42 5.6 4.57 5.29 4.73 4.94 4.9 4.52 5.1 4.06 5.31 3.53 5.55 2.93 5.8 2.27 6.06 1.54 6.33 0.74 6.59 -0.11 6.84 -1.02 7.08 -1.97 7.32 -2.96 7.56 -3.99 7.8 -5.25 -3.25 3.72 -7.27 2.71 -6.92 1.77 -6.59 0.91 -6.28 0.1 -5.99 -0.65 -5.75 -1.35 -5.54 -2.01 -5.36 -2.63 -5.2 -3.21 -5.05 -3.75 -4.91 -4.24 -4.78 -4.68 -4.65 -5.07 -4.53 -5.4 -4.41 -5.69 -4.3 -5.91 -4.2 -6.08 -4.12 -6.2 -4.04 -6.27 -3.97 -6.28 -3.92 -6.23 -3.88 -6.14 -3.85 -5.99 -3.83 -5.79 -3.83 -5.53 -3.85 -5.23 -3.88 -4.87 -3.93 -4.47 -4 -4.01 -4.09 -3.49 -4.21 -2.91 -4.36 -0.27 -0.59zm0.27 0.59l-0.17 -0.28 -0.1 -0.31 0.27 0.59zm49.31 2.17l-2.49 5.81 -0.35 -5.62 11.36 -7.66 9.41 -7.27 7.57 -6.84 5.84 -6.38 4.22 -5.88 2.73 -5.33 1.41 -4.74 0.28 -4.16 -0.68 -3.66 -1.55 -3.3 -2.4 -3.01 -3.23 -2.7 -3.99 -2.33 -4.65 -1.91 -5.2 -1.44 -5.62 -0.95 -5.93 -0.43 -6.12 0.11 -6.19 0.65 -6.15 1.21 -5.99 1.78 -5.72 2.35 -5.33 2.92 -4.85 3.49 -4.26 4.06 -3.59 4.63 -2.84 5.22 -2 5.85 -1.07 6.53 -0.03 7.26 1.14 8.03 2.45 8.84 -5.76 2.12 -2.66 -9.59 -1.27 -8.93 0.03 -8.27 1.25 -7.6 2.36 -6.89 3.34 -6.16 4.19 -5.41 4.91 -4.68 5.49 -3.95 5.95 -3.26 6.3 -2.59 6.54 -1.95 6.68 -1.32 6.71 -0.71 6.64 -0.11 6.47 0.47 6.2 1.05 5.83 1.62 5.36 2.2 4.79 2.8 4.1 3.44 3.26 4.1 2.22 4.76 0.99 5.32 -0.38 5.73 -1.78 6.02 -3.22 6.29 -4.71 6.56 -6.28 6.87 -7.96 7.19 -9.75 7.53 -11.65 7.86 -0.35 -5.62zm-2.49 5.81l-5.31 -2.47 4.96 -3.15 0.35 5.62zm130.27 -94.49l5.2 -3.34 0.32 0.73 1.47 6.25 0.68 6.17 -0.07 6.06 -0.78 5.92 -1.44 5.76 -2.06 5.58 -2.62 5.4 -3.14 5.2 -3.61 5 -4.04 4.8 -4.43 4.59 -4.78 4.37 -5.09 4.16 -5.36 3.93 -5.59 3.7 -5.79 3.47 -5.95 3.23 -6.07 2.98 -6.15 2.72 -6.2 2.45 -6.2 2.18 -6.18 1.9 -6.11 1.61 -6.01 1.31 -5.87 1 -5.7 0.68 -5.49 0.36 -5.25 0.01 -4.98 -0.34 -4.67 -0.71 -4.34 -1.11 -3.97 -1.53 2.49 -5.81 3.25 1.25 3.72 0.95 4.15 0.63 4.53 0.31 4.86 -0.01 5.15 -0.33 5.4 -0.65 5.6 -0.95 5.75 -1.25 5.87 -1.55 5.95 -1.83 5.98 -2.1 5.98 -2.37 5.93 -2.62 5.85 -2.87 5.73 -3.11 5.56 -3.33 5.36 -3.55 5.11 -3.75 4.83 -3.95 4.51 -4.13 4.15 -4.3 3.75 -4.45 3.32 -4.6 2.85 -4.73 2.35 -4.84 1.82 -4.95 1.26 -5.05 0.68 -5.15 0.06 -5.26 -0.59 -5.37 -1.29 -5.5 0.32 0.73zm5.2 -3.34l0.2 0.34 0.11 0.38 -0.32 -0.73zm-238.31 76.94l-6.1 0.4 -0 -0.39 1.32 -13.14 2.4 -12.28 3.41 -11.43 4.36 -10.6 5.24 -9.77 6.06 -8.95 6.8 -8.15 7.47 -7.36 8.06 -6.6 8.59 -5.85 9.05 -5.13 9.44 -4.43 9.77 -3.75 10.02 -3.09 10.22 -2.46 10.35 -1.85 10.42 -1.26 10.42 -0.69 10.36 -0.14 10.24 0.39 10.05 0.9 9.8 1.38 9.49 1.86 9.12 2.31 8.68 2.75 8.18 3.16 7.62 3.57 7 3.97 6.31 4.35 5.57 4.73 4.74 5.11 3.84 5.49 -5.2 3.34 -3.31 -4.72 -4.2 -4.53 -5.05 -4.29 -5.84 -4.02 -6.57 -3.72 -7.23 -3.39 -7.82 -3.02 -8.34 -2.64 -8.79 -2.23 -9.18 -1.8 -9.5 -1.34 -9.75 -0.87 -9.94 -0.38 -10.06 0.14 -10.11 0.67 -10.1 1.22 -10.02 1.79 -9.87 2.38 -9.66 2.98 -9.38 3.6 -9.04 4.24 -8.63 4.89 -8.16 5.56 -7.63 6.24 -7.05 6.95 -6.4 7.67 -5.69 8.42 -4.93 9.19 -4.11 9.99 -3.22 10.81 -2.27 11.67 -1.26 12.56 -0 -0.39zm-6.1 0.4l-0.01 -0.19 0.01 -0.19 0 0.39zm135.58 150.96l-1.46 6.18 -2.11 -4.27 1.58 -5.19 0.68 -4.77 -0.13 -4.43 -0.87 -4.17 -1.58 -3.99 -2.27 -3.88 -2.93 -3.78 -3.56 -3.7 -4.15 -3.63 -4.67 -3.57 -5.14 -3.52 -5.54 -3.49 -5.88 -3.48 -6.17 -3.5 -6.39 -3.54 -6.55 -3.61 -6.66 -3.71 -6.7 -3.83 -6.69 -3.98 -6.61 -4.16 -6.48 -4.37 -6.29 -4.61 -6.05 -4.88 -5.74 -5.18 -5.37 -5.52 -4.94 -5.88 -4.45 -6.28 -3.89 -6.71 -3.26 -7.16 -2.56 -7.63 -1.8 -8.11 -0.97 -8.61 6.1 -0.4 0.89 7.93 1.64 7.43 2.34 6.97 2.98 6.56 3.58 6.18 4.13 5.83 4.63 5.51 5.07 5.21 5.47 4.93 5.8 4.68 6.08 4.45 6.31 4.25 6.47 4.07 6.58 3.91 6.62 3.79 6.62 3.68 6.55 3.61 6.42 3.56 6.24 3.54 6 3.55 5.71 3.6 5.36 3.67 4.96 3.79 4.5 3.94 3.98 4.14 3.39 4.38 2.72 4.67 1.96 4.98 1.1 5.3 0.16 5.58 -0.83 5.84 -1.85 6.08 -2.11 -4.27zm-1.46 6.18l-3.4 -0.88 1.29 -3.39 2.11 4.27z"/>
   </g>
   <g>
    <path class="fil4" d="M119.22 198.55l40.29 22.95c-33.28,31.81 4.82,48.39 48.73,55.64 100.45,10.59 146.25,63.49 89.79,107.06 -36.11,30.43 -152.16,47.35 -185.49,7.51 -14.64,-46.42 43.46,-70.01 79.09,-48.88 13.48,16.1 -9.91,39.31 -33.43,43.01 31.8,16.89 103.41,3.27 91.58,-37.26 -23.81,-32.75 -135.8,-34.01 -147.89,-94.14 -2.47,-25.91 3.78,-40.11 17.33,-55.89z"/>
    <path id="1" class="fil5" d="M158.04 224.29l-40.29 -22.95 2.93 -5.58 40.29 22.95 0.6 5.14 -3.53 0.45zm2.93 -5.58l3.75 2.13 -3.14 3.01 -0.6 -5.14zm47.57 55.26l-0.61 6.33 -0.17 -0.02 -4.14 -0.71 -4.1 -0.77 -4.04 -0.83 -3.98 -0.89 -3.9 -0.95 -3.81 -1.01 -3.71 -1.08 -3.6 -1.14 -3.48 -1.21 -3.34 -1.28 -3.2 -1.35 -3.04 -1.43 -2.88 -1.51 -2.7 -1.6 -2.52 -1.69 -2.32 -1.79 -2.11 -1.9 -1.88 -2.01 -1.63 -2.14 -1.36 -2.28 -1.07 -2.41 -0.73 -2.54 -0.38 -2.65 -0 -2.73 0.38 -2.78 0.76 -2.81 1.13 -2.84 1.51 -2.87 1.88 -2.9 2.25 -2.95 2.64 -3 3.03 -3.06 4.13 4.69 -2.79 2.81 -2.38 2.7 -1.97 2.58 -1.58 2.45 -1.22 2.32 -0.87 2.18 -0.55 2.04 -0.26 1.91 0 1.8 0.25 1.72 0.48 1.67 0.73 1.64 0.97 1.62 1.23 1.61 1.48 1.59 1.73 1.56 1.98 1.52 2.2 1.48 2.42 1.43 2.63 1.38 2.82 1.33 3 1.27 3.16 1.21 3.31 1.16 3.45 1.1 3.57 1.04 3.69 0.98 3.78 0.92 3.87 0.87 3.94 0.81 4.01 0.75 4.06 0.7 -0.17 -0.02zm-0.61 6.33l-0.09 -0.01 -0.08 -0.01 0.17 0.02zm92.02 106.37l-3.84 -4.95 0.1 -0.08 4.84 -3.99 4.24 -4 3.66 -4.01 3.08 -4 2.52 -3.98 1.98 -3.94 1.46 -3.9 0.95 -3.85 0.47 -3.81 -0.01 -3.77 -0.47 -3.74 -0.93 -3.71 -1.39 -3.69 -1.85 -3.66 -2.31 -3.62 -2.78 -3.58 -3.24 -3.51 -3.69 -3.44 -4.14 -3.35 -4.58 -3.24 -5.01 -3.13 -5.44 -3 -5.85 -2.86 -6.26 -2.7 -6.65 -2.54 -7.04 -2.37 -7.42 -2.18 -7.79 -1.99 -8.15 -1.78 -8.49 -1.57 -8.84 -1.34 -9.17 -1.1 0.61 -6.33 9.34 1.13 9.02 1.37 8.68 1.6 8.34 1.82 7.99 2.04 7.63 2.24 7.26 2.44 6.89 2.63 6.5 2.81 6.11 2.98 5.71 3.15 5.3 3.31 4.89 3.46 4.46 3.61 4.02 3.75 3.58 3.88 3.12 4.02 2.64 4.14 2.15 4.26 1.64 4.37 1.11 4.46 0.57 4.54 0.01 4.59 -0.56 4.61 -1.14 4.61 -1.71 4.58 -2.28 4.54 -2.85 4.49 -3.42 4.44 -3.99 4.37 -4.57 4.31 -5.15 4.24 0.1 -0.08zm-3.84 -4.95l0.06 -0.05 0.05 -0.04 -0.1 0.08zm-186.47 10.98l5.8 -1.98 -0.6 -1.1 3.12 3.31 3.57 3.03 4 2.76 4.41 2.49 4.8 2.22 5.15 1.96 5.47 1.69 5.77 1.42 6.03 1.17 6.26 0.91 6.45 0.67 6.62 0.43 6.75 0.19 6.86 -0.03 6.93 -0.25 6.97 -0.46 6.98 -0.67 6.96 -0.86 6.91 -1.05 6.83 -1.23 6.72 -1.4 6.58 -1.57 6.41 -1.72 6.2 -1.87 5.97 -2 5.7 -2.13 5.4 -2.25 5.07 -2.36 4.71 -2.46 4.32 -2.55 3.89 -2.62 3.43 -2.67 3.84 4.95 -3.79 2.95 -4.21 2.83 -4.61 2.71 -4.97 2.59 -5.31 2.47 -5.61 2.34 -5.9 2.21 -6.15 2.07 -6.38 1.92 -6.57 1.77 -6.74 1.61 -6.88 1.43 -6.99 1.26 -7.07 1.07 -7.13 0.88 -7.15 0.68 -7.14 0.48 -7.11 0.26 -7.05 0.03 -6.96 -0.2 -6.84 -0.44 -6.69 -0.69 -6.51 -0.95 -6.31 -1.22 -6.08 -1.5 -5.82 -1.79 -5.53 -2.1 -5.21 -2.41 -4.86 -2.75 -4.48 -3.09 -4.07 -3.46 -3.61 -3.83 -0.6 -1.1zm0.6 1.1l-0.41 -0.49 -0.19 -0.61 0.6 1.1zm83.69 -53.06l-4.6 4.18 0.79 0.67 -3.21 -1.74 -3.32 -1.5 -3.42 -1.27 -3.5 -1.03 -3.57 -0.8 -3.62 -0.57 -3.65 -0.35 -3.66 -0.12 -3.65 0.1 -3.63 0.31 -3.59 0.52 -3.53 0.73 -3.45 0.93 -3.36 1.13 -3.24 1.33 -3.11 1.51 -2.96 1.69 -2.79 1.87 -2.61 2.04 -2.41 2.2 -2.2 2.36 -1.97 2.51 -1.73 2.66 -1.48 2.8 -1.22 2.95 -0.94 3.09 -0.64 3.24 -0.34 3.39 -0.01 3.55 0.33 3.7 0.7 3.86 1.09 4.02 -5.8 1.98 -1.23 -4.55 -0.81 -4.43 -0.39 -4.31 0.01 -4.17 0.4 -4.03 0.77 -3.87 1.12 -3.7 1.45 -3.52 1.76 -3.34 2.05 -3.14 2.31 -2.94 2.55 -2.74 2.77 -2.53 2.97 -2.32 3.15 -2.11 3.32 -1.9 3.46 -1.69 3.59 -1.47 3.7 -1.25 3.8 -1.03 3.87 -0.8 3.93 -0.57 3.98 -0.34 4 -0.11 4.01 0.13 4.01 0.38 3.98 0.63 3.94 0.88 3.88 1.15 3.81 1.41 3.71 1.68 3.6 1.96 0.79 0.67zm-0.79 -0.67l0.45 0.27 0.34 0.41 -0.79 -0.67zm-33.55 42.94l-2.77 5.67 0.93 -5.98 2.06 -0.38 2.06 -0.48 2.05 -0.58 2.04 -0.68 2.01 -0.77 1.98 -0.85 1.95 -0.93 1.9 -1.01 1.85 -1.08 1.79 -1.15 1.72 -1.21 1.65 -1.26 1.57 -1.31 1.48 -1.35 1.38 -1.39 1.28 -1.42 1.17 -1.44 1.06 -1.45 0.93 -1.46 0.81 -1.46 0.68 -1.46 0.54 -1.44 0.41 -1.42 0.27 -1.39 0.14 -1.36 -0 -1.34 -0.14 -1.31 -0.28 -1.29 -0.43 -1.28 -0.59 -1.28 -0.77 -1.28 -0.97 -1.28 4.6 -4.18 1.35 1.78 1.12 1.86 0.9 1.92 0.66 1.97 0.44 2 0.21 2.02 0 2.02 -0.2 2 -0.39 1.98 -0.56 1.95 -0.72 1.92 -0.87 1.88 -1.01 1.84 -1.15 1.79 -1.27 1.75 -1.38 1.7 -1.49 1.65 -1.59 1.6 -1.69 1.54 -1.77 1.48 -1.86 1.42 -1.93 1.35 -2 1.28 -2.06 1.2 -2.12 1.12 -2.17 1.04 -2.21 0.95 -2.25 0.86 -2.28 0.76 -2.31 0.65 -2.33 0.54 -2.35 0.43 0.93 -5.98zm-2.77 5.67l-8.48 -4.5 9.41 -1.48 -0.93 5.98zm90.53 -38.17l4.87 -3.84 0.49 1 0.95 4.08 0.45 3.96 -0.05 3.83 -0.52 3.67 -0.98 3.49 -1.39 3.3 -1.78 3.09 -2.13 2.88 -2.44 2.67 -2.72 2.46 -2.98 2.26 -3.21 2.06 -3.41 1.87 -3.6 1.69 -3.76 1.51 -3.9 1.33 -4.02 1.15 -4.12 0.97 -4.2 0.79 -4.26 0.62 -4.29 0.44 -4.3 0.26 -4.3 0.09 -4.27 -0.09 -4.22 -0.27 -4.15 -0.45 -4.06 -0.63 -3.95 -0.82 -3.82 -1 -3.66 -1.19 -3.49 -1.39 -3.29 -1.59 2.77 -5.67 2.89 1.4 3.12 1.24 3.32 1.08 3.5 0.92 3.65 0.76 3.78 0.59 3.89 0.42 3.97 0.25 4.02 0.09 4.06 -0.08 4.06 -0.25 4.05 -0.42 4.01 -0.58 3.95 -0.75 3.86 -0.91 3.75 -1.07 3.61 -1.23 3.45 -1.38 3.27 -1.53 3.06 -1.68 2.83 -1.82 2.58 -1.96 2.31 -2.09 2.02 -2.2 1.72 -2.32 1.4 -2.43 1.08 -2.54 0.75 -2.67 0.4 -2.82 0.04 -2.98 -0.36 -3.16 -0.79 -3.36 0.49 1zm4.87 -3.84l0.33 0.45 0.16 0.54 -0.49 -1zm-153.37 -91.91l6.08 -0.62 -0.05 -0.34 1.33 5.11 1.84 4.8 2.33 4.52 2.79 4.26 3.24 4.03 3.65 3.8 4.04 3.59 4.4 3.39 4.72 3.21 5.01 3.03 5.27 2.87 5.49 2.72 5.68 2.58 5.83 2.46 5.94 2.35 6.03 2.26 6.07 2.19 6.08 2.13 6.06 2.08 6 2.06 5.91 2.05 5.79 2.06 5.63 2.08 5.44 2.12 5.22 2.18 4.96 2.27 4.67 2.37 4.36 2.49 4.01 2.65 3.63 2.83 3.21 3.04 2.74 3.29 -4.87 3.84 -2.23 -2.67 -2.73 -2.58 -3.2 -2.5 -3.65 -2.41 -4.06 -2.32 -4.43 -2.24 -4.76 -2.18 -5.06 -2.12 -5.32 -2.08 -5.54 -2.05 -5.73 -2.04 -5.88 -2.04 -6 -2.06 -6.08 -2.09 -6.12 -2.14 -6.13 -2.21 -6.11 -2.3 -6.05 -2.4 -5.96 -2.52 -5.84 -2.66 -5.68 -2.81 -5.49 -2.99 -5.26 -3.18 -5.01 -3.4 -4.71 -3.64 -4.38 -3.9 -4.01 -4.18 -3.6 -4.48 -3.15 -4.8 -2.65 -5.14 -2.1 -5.48 -1.51 -5.82 -0.05 -0.34zm0.05 0.34l-0.03 -0.17 -0.02 -0.17 0.05 0.34zm21.79 -59.33l-2.93 5.58 3.74 -0.67 -1.22 1.44 -1.18 1.43 -1.13 1.42 -1.08 1.42 -1.04 1.41 -0.99 1.41 -0.95 1.41 -0.9 1.41 -0.86 1.42 -0.81 1.43 -0.76 1.44 -0.72 1.45 -0.68 1.47 -0.63 1.49 -0.59 1.51 -0.54 1.53 -0.5 1.56 -0.45 1.59 -0.41 1.63 -0.37 1.66 -0.32 1.7 -0.28 1.75 -0.23 1.79 -0.18 1.84 -0.14 1.9 -0.09 1.95 -0.04 2.01 0 2.07 0.05 2.13 0.1 2.2 0.15 2.26 0.2 2.33 -6.08 0.62 -0.21 -2.46 -0.16 -2.39 -0.11 -2.33 -0.06 -2.28 -0 -2.22 0.05 -2.17 0.1 -2.12 0.15 -2.07 0.2 -2.02 0.25 -1.98 0.31 -1.94 0.36 -1.9 0.41 -1.86 0.46 -1.82 0.51 -1.79 0.56 -1.76 0.61 -1.72 0.66 -1.69 0.71 -1.67 0.76 -1.64 0.8 -1.62 0.85 -1.6 0.89 -1.58 0.94 -1.56 0.98 -1.54 1.03 -1.53 1.07 -1.52 1.11 -1.51 1.15 -1.51 1.2 -1.51 1.24 -1.51 1.28 -1.51 3.74 -0.67zm-3.74 0.67l1.61 -1.88 2.13 1.21 -3.74 0.67z"/>
   </g>
  </g>
 </g>
</svg>
